<svg width="61" height="58" viewBox="0 0 61 58" fill="none" xmlns="http://www.w3.org/2000/svg">
<path d="M59.528 2.45499L59.224 1.69L58.4194 1.40109C55.8302 0.471376 53.1087 0 50.3305 0C44.2251 0 38.4849 2.2607 34.1675 6.36575L28.0465 12.1858L14.3659 12.8167L2.91577 23.7036L12.7881 26.6937L9.13749 30.1647L11.27 32.1923L6.54549 39.0779L19.9021 51.7779L27.1439 47.2857L29.2765 49.3133L32.9271 45.8422L36.0716 55.2291L47.522 44.342L48.1854 31.3344L54.3065 25.5144C60.6474 19.4852 62.6969 10.4339 59.528 2.45499ZM10.0305 22.0588L16.0189 16.365L24.04 15.9952L15.8189 23.812L10.0305 22.0588ZM20.4097 47.1404L11.4228 38.5955L14.0213 34.8084L24.3925 44.6697L20.4097 47.1404ZM43.79 42.7704L37.8017 48.4642L35.9579 42.9605L44.179 35.1437L43.79 42.7704ZM29.2765 44.1932L14.5223 30.1647L36.8599 8.92561C40.4582 5.50445 45.242 3.6204 50.3305 3.6204C52.3558 3.6204 54.3445 3.92053 56.2541 4.51355C58.469 10.9675 56.6937 18.1244 51.6141 22.9543L29.2765 44.1932Z" fill="white"/>
<path d="M46.3206 8.52846C44.795 8.52846 43.3608 9.09336 42.282 10.119C40.0551 12.2363 40.0551 15.6816 42.282 17.7991C43.3608 18.8248 44.7951 19.3897 46.3206 19.3897C47.8461 19.3897 49.2804 18.8248 50.3591 17.7991C52.5861 15.6818 52.5861 12.2365 50.3591 10.119C49.2805 9.09336 47.8462 8.52846 46.3206 8.52846ZM47.6668 15.2391C47.3073 15.581 46.8292 15.7694 46.3207 15.7694C45.8123 15.7694 45.3341 15.581 44.9746 15.2392C44.2322 14.5334 44.2322 13.385 44.9746 12.6791C45.3341 12.3372 45.8123 12.149 46.3207 12.149C46.8292 12.149 47.3073 12.3372 47.6668 12.6791C48.4091 13.3849 48.4091 14.5334 47.6668 15.2391Z" fill="white"/>
<path d="M0.00164795 45.3289L4.31687 41.2257L7.00927 43.7857L2.69404 47.8887L0.00164795 45.3289ZM13.3273 58L10.6349 55.44L14.9501 51.337L17.6425 53.897L13.3273 58ZM3.17698 52.2397L9.53857 46.191L12.231 48.751L5.86938 54.7997L3.17698 52.2397Z" fill="white"/>
</svg>
