<svg width="48" height="57" viewBox="0 0 48 57" fill="none" xmlns="http://www.w3.org/2000/svg">
<mask id="path-1-inside-1_17_3" fill="currentColor">
<path d="M4.15069 19.7013C4.44649 19.3175 5.01349 19.2344 5.41703 19.5158C5.82057 19.7971 5.90789 20.3364 5.61209 20.7202C2.83108 24.3307 2.53878 27.4634 2.27323 30.3102C2.23409 30.7297 2.19552 31.1435 2.15052 31.552C2.475 31.3719 2.86066 31.3016 3.62059 31.4384C4.1123 31.5259 4.43625 31.9761 4.34419 32.4438C4.33498 32.4906 4.32185 32.5358 4.3054 32.5791C3.68691 34.5336 3.4733 36.4217 3.5966 38.1222C3.6921 39.4395 3.99084 40.6366 4.46002 41.6551C5.08678 41.104 5.67014 40.7113 6.18983 40.435C7.65315 39.6568 8.8248 39.8035 9.14281 39.9692L9.14549 39.9707L9.14633 39.9692C9.98755 40.4076 9.99425 41.6975 10.0028 43.3837C10.0085 44.5085 10.0155 45.8598 10.2236 47.0945C10.3592 46.8375 10.5192 46.6176 10.6998 46.4322C11.2397 45.8785 11.9292 45.6369 12.6961 45.644C13.3604 45.6501 14.071 45.8531 14.7706 46.2022C16.1453 46.8883 17.5556 48.193 18.4632 49.6611C18.6018 49.5359 18.7494 49.4299 18.9043 49.3427C19.4677 49.0259 20.095 48.9626 20.7375 49.1355C21.2885 49.2837 21.8414 49.6114 22.3545 50.1037C22.9631 50.6875 23.5395 51.5314 24 52.603C24.4604 51.5314 25.0368 50.6875 25.6454 50.1037C26.1585 49.6114 26.7114 49.2837 27.2624 49.1355C27.9049 48.9627 28.5322 49.0259 29.0956 49.3428C29.2505 49.4299 29.3981 49.5359 29.5367 49.6611C30.4443 48.193 31.8546 46.8883 33.2293 46.2022C33.9289 45.8531 34.6395 45.6501 35.3038 45.644C36.0707 45.6368 36.7602 45.8784 37.3001 46.4322C37.4807 46.6176 37.6407 46.8375 37.7763 47.0945C37.9844 45.8598 37.9914 44.5085 37.9971 43.3837C38.0057 41.6975 38.0124 40.4076 38.8536 39.9692C38.9758 39.9054 39.1067 39.8712 39.2372 39.8641C39.7678 39.7873 40.7058 39.8477 41.8101 40.435C42.3298 40.7113 42.9131 41.104 43.5399 41.6551C44.0091 40.6366 44.3078 39.4395 44.4033 38.1222C44.5275 36.4089 44.3098 34.5051 43.6805 32.5349C43.5355 32.0802 43.8055 31.5999 44.2835 31.462C44.3154 31.4527 44.3475 31.4454 44.3795 31.4396L44.3793 31.4384C45.1392 31.3016 45.5249 31.3719 45.8494 31.552C45.8044 31.1435 45.7658 30.7297 45.7267 30.3102C45.4611 27.4634 45.1688 24.3307 42.3878 20.7202C42.092 20.3364 42.1793 19.7971 42.5829 19.5158C42.9864 19.2344 43.5534 19.3175 43.8492 19.7013C46.9253 23.6949 47.2414 27.0829 47.5286 30.1618C47.6194 31.1357 47.7073 32.0765 47.8902 32.9951L47.8899 32.9952C47.9146 33.1202 47.9105 33.2523 47.8724 33.3832C47.7392 33.8415 47.2405 34.1104 46.7586 33.9837C46.3744 33.882 46.0821 33.7695 45.8499 33.6559C46.206 35.2618 46.316 36.8083 46.2124 38.2368C46.064 40.2842 45.479 42.1034 44.5512 43.5281C44.5035 43.6084 44.4412 43.6828 44.3646 43.7476C43.9904 44.0643 43.4171 44.0326 43.0841 43.6767C42.2598 42.7968 41.5313 42.2593 40.9303 41.9398C40.1734 41.5372 39.8104 41.4601 39.7322 41.4774L39.7262 41.4807C39.6363 41.5275 39.8118 42.2818 39.8062 43.3904C39.7942 45.7384 39.7774 48.9608 38.0638 50.8962C37.8838 51.1329 37.5818 51.2769 37.2533 51.2512C36.7538 51.2121 36.3822 50.7951 36.4233 50.32C36.5554 48.8537 36.3597 48.0026 35.9734 47.6062C35.8077 47.4362 35.5802 47.3622 35.318 47.3646C34.9532 47.368 34.522 47.4999 34.0664 47.7272C32.5776 48.4703 31.0389 50.1133 30.5196 51.7549C30.4457 52.0493 30.2107 52.2979 29.8826 52.3854C29.4007 52.5139 28.9004 52.2466 28.7652 51.7883C28.6108 51.27 28.4036 50.9568 28.1733 50.8273C28.0565 50.7616 27.9118 50.7524 27.7519 50.7954C27.5005 50.863 27.2198 51.0398 26.9295 51.3183C26.0242 52.1867 25.1993 53.872 24.9024 56.2273C24.8593 56.6198 24.5357 56.9458 24.1064 56.994C23.6088 57.0498 23.1577 56.7115 23.099 56.2382C22.8033 53.8772 21.9771 52.1881 21.0705 51.3183C20.7802 51.0398 20.4995 50.863 20.248 50.7954C20.0881 50.7523 19.9435 50.7616 19.8266 50.8272C19.5963 50.9567 19.3892 51.27 19.2347 51.7883L19.2334 51.7879C19.1514 52.0647 18.9257 52.2961 18.614 52.382C18.134 52.5143 17.6321 52.2515 17.493 51.795C16.9863 50.1402 15.4344 48.4763 13.9335 47.7272C13.478 47.4999 13.0468 47.368 12.6819 47.3646C12.4197 47.3622 12.1923 47.4362 12.0265 47.6063C11.6402 48.0026 11.4445 48.8538 11.5766 50.32L11.574 50.3202C11.5965 50.5828 11.4925 50.8519 11.268 51.0387C10.8919 51.3517 10.3201 51.3154 9.99105 50.9577C8.2226 49.0296 8.20583 45.7633 8.19372 43.3904C8.18809 42.2818 8.36367 41.5275 8.27376 41.4807L8.27447 41.4794C8.21276 41.4554 7.85123 41.524 7.06957 41.9398C6.46865 42.2593 5.74009 42.7968 4.91586 43.6767L4.91564 43.6765C4.85919 43.7368 4.79292 43.7905 4.71722 43.8353C4.29214 44.0868 3.73309 43.963 3.46862 43.5587C2.52927 42.1295 1.93701 40.2989 1.78753 38.2368C1.68395 36.8083 1.79388 35.2618 2.15 33.6559C1.9254 33.7658 1.64462 33.8746 1.27889 33.9736C1.1396 34.0166 0.987387 34.028 0.833345 34.0005C0.341638 33.913 0.0176903 33.4628 0.109749 32.9951C0.29266 32.0765 0.380472 31.1357 0.471323 30.1618C0.758536 27.0829 1.07462 23.6949 4.15071 19.7013L4.15069 19.7013Z"/>
</mask>
<path d="M4.15069 19.7013C4.44649 19.3175 5.01349 19.2344 5.41703 19.5158C5.82057 19.7971 5.90789 20.3364 5.61209 20.7202C2.83108 24.3307 2.53878 27.4634 2.27323 30.3102C2.23409 30.7297 2.19552 31.1435 2.15052 31.552C2.475 31.3719 2.86066 31.3016 3.62059 31.4384C4.1123 31.5259 4.43625 31.9761 4.34419 32.4438C4.33498 32.4906 4.32185 32.5358 4.3054 32.5791C3.68691 34.5336 3.4733 36.4217 3.5966 38.1222C3.6921 39.4395 3.99084 40.6366 4.46002 41.6551C5.08678 41.104 5.67014 40.7113 6.18983 40.435C7.65315 39.6568 8.8248 39.8035 9.14281 39.9692L9.14549 39.9707L9.14633 39.9692C9.98755 40.4076 9.99425 41.6975 10.0028 43.3837C10.0085 44.5085 10.0155 45.8598 10.2236 47.0945C10.3592 46.8375 10.5192 46.6176 10.6998 46.4322C11.2397 45.8785 11.9292 45.6369 12.6961 45.644C13.3604 45.6501 14.071 45.8531 14.7706 46.2022C16.1453 46.8883 17.5556 48.193 18.4632 49.6611C18.6018 49.5359 18.7494 49.4299 18.9043 49.3427C19.4677 49.0259 20.095 48.9626 20.7375 49.1355C21.2885 49.2837 21.8414 49.6114 22.3545 50.1037C22.9631 50.6875 23.5395 51.5314 24 52.603C24.4604 51.5314 25.0368 50.6875 25.6454 50.1037C26.1585 49.6114 26.7114 49.2837 27.2624 49.1355C27.9049 48.9627 28.5322 49.0259 29.0956 49.3428C29.2505 49.4299 29.3981 49.5359 29.5367 49.6611C30.4443 48.193 31.8546 46.8883 33.2293 46.2022C33.9289 45.8531 34.6395 45.6501 35.3038 45.644C36.0707 45.6368 36.7602 45.8784 37.3001 46.4322C37.4807 46.6176 37.6407 46.8375 37.7763 47.0945C37.9844 45.8598 37.9914 44.5085 37.9971 43.3837C38.0057 41.6975 38.0124 40.4076 38.8536 39.9692C38.9758 39.9054 39.1067 39.8712 39.2372 39.8641C39.7678 39.7873 40.7058 39.8477 41.8101 40.435C42.3298 40.7113 42.9131 41.104 43.5399 41.6551C44.0091 40.6366 44.3078 39.4395 44.4033 38.1222C44.5275 36.4089 44.3098 34.5051 43.6805 32.5349C43.5355 32.0802 43.8055 31.5999 44.2835 31.462C44.3154 31.4527 44.3475 31.4454 44.3795 31.4396L44.3793 31.4384C45.1392 31.3016 45.5249 31.3719 45.8494 31.552C45.8044 31.1435 45.7658 30.7297 45.7267 30.3102C45.4611 27.4634 45.1688 24.3307 42.3878 20.7202C42.092 20.3364 42.1793 19.7971 42.5829 19.5158C42.9864 19.2344 43.5534 19.3175 43.8492 19.7013C46.9253 23.6949 47.2414 27.0829 47.5286 30.1618C47.6194 31.1357 47.7073 32.0765 47.8902 32.9951L47.8899 32.9952C47.9146 33.1202 47.9105 33.2523 47.8724 33.3832C47.7392 33.8415 47.2405 34.1104 46.7586 33.9837C46.3744 33.882 46.0821 33.7695 45.8499 33.6559C46.206 35.2618 46.316 36.8083 46.2124 38.2368C46.064 40.2842 45.479 42.1034 44.5512 43.5281C44.5035 43.6084 44.4412 43.6828 44.3646 43.7476C43.9904 44.0643 43.4171 44.0326 43.0841 43.6767C42.2598 42.7968 41.5313 42.2593 40.9303 41.9398C40.1734 41.5372 39.8104 41.4601 39.7322 41.4774L39.7262 41.4807C39.6363 41.5275 39.8118 42.2818 39.8062 43.3904C39.7942 45.7384 39.7774 48.9608 38.0638 50.8962C37.8838 51.1329 37.5818 51.2769 37.2533 51.2512C36.7538 51.2121 36.3822 50.7951 36.4233 50.32C36.5554 48.8537 36.3597 48.0026 35.9734 47.6062C35.8077 47.4362 35.5802 47.3622 35.318 47.3646C34.9532 47.368 34.522 47.4999 34.0664 47.7272C32.5776 48.4703 31.0389 50.1133 30.5196 51.7549C30.4457 52.0493 30.2107 52.2979 29.8826 52.3854C29.4007 52.5139 28.9004 52.2466 28.7652 51.7883C28.6108 51.27 28.4036 50.9568 28.1733 50.8273C28.0565 50.7616 27.9118 50.7524 27.7519 50.7954C27.5005 50.863 27.2198 51.0398 26.9295 51.3183C26.0242 52.1867 25.1993 53.872 24.9024 56.2273C24.8593 56.6198 24.5357 56.9458 24.1064 56.994C23.6088 57.0498 23.1577 56.7115 23.099 56.2382C22.8033 53.8772 21.9771 52.1881 21.0705 51.3183C20.7802 51.0398 20.4995 50.863 20.248 50.7954C20.0881 50.7523 19.9435 50.7616 19.8266 50.8272C19.5963 50.9567 19.3892 51.27 19.2347 51.7883L19.2334 51.7879C19.1514 52.0647 18.9257 52.2961 18.614 52.382C18.134 52.5143 17.6321 52.2515 17.493 51.795C16.9863 50.1402 15.4344 48.4763 13.9335 47.7272C13.478 47.4999 13.0468 47.368 12.6819 47.3646C12.4197 47.3622 12.1923 47.4362 12.0265 47.6063C11.6402 48.0026 11.4445 48.8538 11.5766 50.32L11.574 50.3202C11.5965 50.5828 11.4925 50.8519 11.268 51.0387C10.8919 51.3517 10.3201 51.3154 9.99105 50.9577C8.2226 49.0296 8.20583 45.7633 8.19372 43.3904C8.18809 42.2818 8.36367 41.5275 8.27376 41.4807L8.27447 41.4794C8.21276 41.4554 7.85123 41.524 7.06957 41.9398C6.46865 42.2593 5.74009 42.7968 4.91586 43.6767L4.91564 43.6765C4.85919 43.7368 4.79292 43.7905 4.71722 43.8353C4.29214 44.0868 3.73309 43.963 3.46862 43.5587C2.52927 42.1295 1.93701 40.2989 1.78753 38.2368C1.68395 36.8083 1.79388 35.2618 2.15 33.6559C1.9254 33.7658 1.64462 33.8746 1.27889 33.9736C1.1396 34.0166 0.987387 34.028 0.833345 34.0005C0.341638 33.913 0.0176903 33.4628 0.109749 32.9951C0.29266 32.0765 0.380472 31.1357 0.471323 30.1618C0.758536 27.0829 1.07462 23.6949 4.15071 19.7013L4.15069 19.7013Z" fill="currentColor" stroke="currentColor" stroke-width="8" mask="url(#path-1-inside-1_17_3)"/>
<mask id="path-2-inside-2_17_3" fill="currentColor">
<path d="M23.0919 39.2657C23.0919 38.7887 23.4985 38.402 24 38.402C24.5015 38.402 24.908 38.7887 24.908 39.2657C24.908 40.51 24.3735 41.6405 23.5124 42.4596C22.6512 43.2786 21.4626 43.787 20.1544 43.787H20.1544C18.8462 43.787 17.6576 43.2786 16.7964 42.4596C15.9353 41.6405 15.4008 40.51 15.4008 39.2657V35.6081C15.4008 35.1311 15.8073 34.7444 16.3088 34.7444C16.8103 34.7444 17.2169 35.1311 17.2169 35.6081V39.2657C17.2169 40.0331 17.5477 40.7314 18.0805 41.2382C18.6133 41.745 19.3476 42.0596 20.1544 42.0596H20.1544C20.9612 42.0596 21.6955 41.745 22.2283 41.2382C22.7611 40.7314 23.0919 40.0331 23.0919 39.2657H23.0919Z"/>
</mask>
<path d="M23.0919 39.2657C23.0919 38.7887 23.4985 38.402 24 38.402C24.5015 38.402 24.908 38.7887 24.908 39.2657C24.908 40.51 24.3735 41.6405 23.5124 42.4596C22.6512 43.2786 21.4626 43.787 20.1544 43.787H20.1544C18.8462 43.787 17.6576 43.2786 16.7964 42.4596C15.9353 41.6405 15.4008 40.51 15.4008 39.2657V35.6081C15.4008 35.1311 15.8073 34.7444 16.3088 34.7444C16.8103 34.7444 17.2169 35.1311 17.2169 35.6081V39.2657C17.2169 40.0331 17.5477 40.7314 18.0805 41.2382C18.6133 41.745 19.3476 42.0596 20.1544 42.0596H20.1544C20.9612 42.0596 21.6955 41.745 22.2283 41.2382C22.7611 40.7314 23.0919 40.0331 23.0919 39.2657H23.0919Z" fill="currentColor"/>
<path d="M23.0919 39.2657V43.2657H27.0919V39.2657H23.0919ZM23.5124 42.4596L20.7556 39.5612L20.7556 39.5612L23.5124 42.4596ZM16.7964 42.4596L19.5532 39.5612L19.5531 39.5612L16.7964 42.4596ZM23.0919 39.2657V35.2657H19.0919V39.2657H23.0919ZM27.0919 39.2657C27.0919 41.1843 25.5164 42.402 24 42.402V34.402C21.4805 34.402 19.0919 36.3931 19.0919 39.2657H27.0919ZM24 42.402C22.4835 42.402 20.908 41.1843 20.908 39.2657H28.908C28.908 36.3931 26.5194 34.402 24 34.402V42.402ZM20.908 39.2657C20.908 39.3087 20.8999 39.3482 20.8805 39.3917C20.8594 39.4388 20.8208 39.4992 20.7556 39.5612L26.2691 45.3579C27.8617 43.8431 28.908 41.6888 28.908 39.2657H20.908ZM20.7556 39.5612C20.6231 39.6873 20.4159 39.787 20.1544 39.787V47.787C22.5093 47.787 24.6794 46.8699 26.2691 45.3579L20.7556 39.5612ZM20.1544 39.787H20.1544V47.787H20.1544V39.787ZM20.1544 39.787C19.8929 39.787 19.6857 39.6873 19.5532 39.5612L14.0397 45.3579C15.6294 46.8699 17.7995 47.787 20.1544 47.787V39.787ZM19.5531 39.5612C19.488 39.4992 19.4493 39.4388 19.4283 39.3917C19.4089 39.3482 19.4008 39.3087 19.4008 39.2657H11.4008C11.4008 41.6888 12.4471 43.8431 14.0397 45.3579L19.5531 39.5612ZM19.4008 39.2657V35.6081H11.4008V39.2657H19.4008ZM19.4008 35.6081C19.4008 37.5267 17.8253 38.7444 16.3088 38.7444V30.7444C13.7894 30.7444 11.4008 32.7355 11.4008 35.6081H19.4008ZM16.3088 38.7444C14.7924 38.7444 13.2169 37.5267 13.2169 35.6081H21.2169C21.2169 32.7355 18.8282 30.7444 16.3088 30.7444V38.7444ZM13.2169 35.6081V39.2657H21.2169V35.6081H13.2169ZM13.2169 39.2657C13.2169 41.2159 14.0625 42.937 15.3238 44.1366L20.8372 38.3399C21.0328 38.5259 21.2169 38.8503 21.2169 39.2657H13.2169ZM15.3238 44.1366C16.5824 45.3337 18.2971 46.0596 20.1544 46.0596V38.0596C20.398 38.0596 20.6442 38.1563 20.8372 38.3399L15.3238 44.1366ZM20.1544 46.0596H20.1544V38.0596H20.1544V46.0596ZM20.1544 46.0596C22.0117 46.0596 23.7264 45.3337 24.985 44.1366L19.4716 38.3399C19.6645 38.1563 19.9108 38.0596 20.1544 38.0596V46.0596ZM24.985 44.1366C26.2462 42.937 27.0919 41.2159 27.0919 39.2657H19.0919C19.0919 38.8503 19.2759 38.5259 19.4716 38.3399L24.985 44.1366ZM23.0919 43.2657H23.0919V35.2657H23.0919V43.2657Z" fill="currentColor" mask="url(#path-2-inside-2_17_3)"/>
<mask id="path-4-inside-3_17_3" fill="currentColor">
<path d="M23.0919 39.2657C23.0919 38.7887 23.4985 38.402 24 38.402C24.5015 38.402 24.9081 38.7887 24.9081 39.2657C24.9081 40.0331 25.2388 40.7314 25.7717 41.2382C26.3045 41.745 27.0387 42.0596 27.8455 42.0596H27.8456C28.6524 42.0596 29.3866 41.745 29.9194 41.2382C30.4523 40.7314 30.783 40.0331 30.783 39.2657V35.6081C30.783 35.1311 31.1896 34.7444 31.6911 34.7444C32.1926 34.7444 32.5992 35.1311 32.5992 35.6081V39.2657C32.5992 40.51 32.0647 41.6405 31.2035 42.4596C30.3424 43.2786 29.1537 43.787 27.8456 43.787H27.8455C26.5374 43.787 25.3487 43.2786 24.4876 42.4596C23.6264 41.6405 23.0919 40.51 23.0919 39.2657H23.0919Z"/>
</mask>
<path d="M23.0919 39.2657C23.0919 38.7887 23.4985 38.402 24 38.402C24.5015 38.402 24.9081 38.7887 24.9081 39.2657C24.9081 40.0331 25.2388 40.7314 25.7717 41.2382C26.3045 41.745 27.0387 42.0596 27.8455 42.0596H27.8456C28.6524 42.0596 29.3866 41.745 29.9194 41.2382C30.4523 40.7314 30.783 40.0331 30.783 39.2657V35.6081C30.783 35.1311 31.1896 34.7444 31.6911 34.7444C32.1926 34.7444 32.5992 35.1311 32.5992 35.6081V39.2657C32.5992 40.51 32.0647 41.6405 31.2035 42.4596C30.3424 43.2786 29.1537 43.787 27.8456 43.787H27.8455C26.5374 43.787 25.3487 43.2786 24.4876 42.4596C23.6264 41.6405 23.0919 40.51 23.0919 39.2657H23.0919Z" fill="currentColor"/>
<path d="M23.0919 39.2657V43.2657H27.0919V39.2657H23.0919ZM31.2035 42.4596L28.4468 39.5612L28.4468 39.5612L31.2035 42.4596ZM24.4876 42.4596L27.2443 39.5612L27.2443 39.5612L24.4876 42.4596ZM23.0919 39.2657V35.2657H19.0919V39.2657H23.0919ZM27.0919 39.2657C27.0919 41.1843 25.5164 42.402 24 42.402V34.402C21.4806 34.402 19.0919 36.3931 19.0919 39.2657H27.0919ZM24 42.402C22.4835 42.402 20.9081 41.1843 20.9081 39.2657H28.9081C28.9081 36.3931 26.5194 34.402 24 34.402V42.402ZM20.9081 39.2657C20.9081 41.2159 21.7537 42.937 23.015 44.1366L28.5284 38.3399C28.724 38.5259 28.9081 38.8503 28.9081 39.2657H20.9081ZM23.015 44.1366C24.2736 45.3337 25.9883 46.0596 27.8455 46.0596V38.0596C28.0892 38.0596 28.3354 38.1563 28.5284 38.3399L23.015 44.1366ZM27.8455 46.0596H27.8456V38.0596H27.8455V46.0596ZM27.8456 46.0596C29.7028 46.0596 31.4175 45.3337 32.6762 44.1366L27.1627 38.3399C27.3557 38.1563 27.6019 38.0596 27.8456 38.0596V46.0596ZM32.6762 44.1366C33.9374 42.937 34.783 41.2159 34.783 39.2657H26.783C26.783 38.8503 26.9671 38.5259 27.1627 38.3399L32.6762 44.1366ZM34.783 39.2657V35.6081H26.783V39.2657H34.783ZM34.783 35.6081C34.783 37.5267 33.2076 38.7444 31.6911 38.7444V30.7444C29.1717 30.7444 26.783 32.7355 26.783 35.6081H34.783ZM31.6911 38.7444C30.1747 38.7444 28.5992 37.5267 28.5992 35.6081H36.5992C36.5992 32.7355 34.2105 30.7444 31.6911 30.7444V38.7444ZM28.5992 35.6081V39.2657H36.5992V35.6081H28.5992ZM28.5992 39.2657C28.5992 39.3087 28.5911 39.3482 28.5716 39.3917C28.5506 39.4388 28.512 39.4992 28.4468 39.5612L33.9602 45.3579C35.5529 43.8431 36.5992 41.6888 36.5992 39.2657H28.5992ZM28.4468 39.5612C28.3142 39.6873 28.107 39.787 27.8456 39.787V47.787C30.2005 47.787 32.3705 46.8699 33.9602 45.3579L28.4468 39.5612ZM27.8456 39.787H27.8455V47.787H27.8456V39.787ZM27.8455 39.787C27.5841 39.787 27.3769 39.6873 27.2443 39.5612L21.7309 45.3579C23.3206 46.8699 25.4906 47.787 27.8455 47.787V39.787ZM27.2443 39.5612C27.1791 39.4992 27.1405 39.4388 27.1195 39.3917C27.1 39.3482 27.0919 39.3087 27.0919 39.2657H19.0919C19.0919 41.6888 20.1382 43.8431 21.7309 45.3579L27.2443 39.5612ZM23.0919 43.2657H23.0919V35.2657H23.0919V43.2657Z" fill="currentColor" mask="url(#path-4-inside-3_17_3)"/>
<mask id="path-6-inside-4_17_3" fill="currentColor">
<path d="M16.7884 34.3849C17.2233 34.1502 17.776 34.2952 18.0228 34.7088C18.2696 35.1224 18.1171 35.6481 17.6823 35.8829C17.3304 36.0728 16.9517 36.2214 16.5541 36.3213C16.1633 36.4194 15.7586 36.4718 15.3475 36.4718H15.3475C14.0393 36.4718 12.8507 35.9634 11.9895 35.1443C11.1284 34.3252 10.5939 33.1947 10.5939 31.9504V30.1216C10.5939 29.6446 11.0004 29.2579 11.5019 29.2579C12.0034 29.2579 12.41 29.6446 12.41 30.1216V31.9504C12.41 32.7178 12.7408 33.4162 13.2736 33.923C13.8064 34.4298 14.5407 34.7444 15.3475 34.7444H15.3475C15.6101 34.7444 15.8599 34.7131 16.093 34.6546C16.3394 34.5927 16.5729 34.5013 16.7884 34.3849L16.7884 34.3849Z"/>
</mask>
<path d="M16.7884 34.3849C17.2233 34.1502 17.776 34.2952 18.0228 34.7088C18.2696 35.1224 18.1171 35.6481 17.6823 35.8829C17.3304 36.0728 16.9517 36.2214 16.5541 36.3213C16.1633 36.4194 15.7586 36.4718 15.3475 36.4718H15.3475C14.0393 36.4718 12.8507 35.9634 11.9895 35.1443C11.1284 34.3252 10.5939 33.1947 10.5939 31.9504V30.1216C10.5939 29.6446 11.0004 29.2579 11.5019 29.2579C12.0034 29.2579 12.41 29.6446 12.41 30.1216V31.9504C12.41 32.7178 12.7408 33.4162 13.2736 33.923C13.8064 34.4298 14.5407 34.7444 15.3475 34.7444H15.3475C15.6101 34.7444 15.8599 34.7131 16.093 34.6546C16.3394 34.5927 16.5729 34.5013 16.7884 34.3849L16.7884 34.3849Z" fill="currentColor"/>
<path d="M16.7884 34.3849L14.0317 37.2833L16.1347 39.2835L18.6886 37.9048L16.7884 34.3849ZM18.0228 34.7088L14.5879 36.7585L14.5879 36.7585L18.0228 34.7088ZM17.6823 35.8829L15.7821 32.363L15.782 32.3631L17.6823 35.8829ZM16.5541 36.3213L17.5281 40.2009L17.5286 40.2008L16.5541 36.3213ZM11.9895 35.1443L14.7463 32.246L14.7463 32.2459L11.9895 35.1443ZM16.093 34.6546L17.0671 38.5342L17.0678 38.534L16.093 34.6546ZM16.7884 34.3849L19.5451 31.4866L17.442 29.4862L14.888 30.8652L16.7884 34.3849ZM18.6886 37.9048C17.3187 38.6443 15.485 38.262 14.5879 36.7585L21.4577 32.6591C20.0669 30.3284 17.1279 29.6561 14.8883 30.8651L18.6886 37.9048ZM14.5879 36.7585C13.6155 35.1289 14.3052 33.1603 15.7821 32.363L19.5824 39.4027C21.9291 38.1359 22.9238 35.1159 21.4577 32.6591L14.5879 36.7585ZM15.782 32.3631C15.7184 32.3974 15.6502 32.4241 15.5796 32.4418L17.5286 40.2008C18.2532 40.0188 18.9425 39.7482 19.5826 39.4026L15.782 32.3631ZM15.5801 32.4417C15.496 32.4628 15.4183 32.4718 15.3475 32.4718V40.4718C16.0989 40.4718 16.8306 40.376 17.5281 40.2009L15.5801 32.4417ZM15.3475 32.4718H15.3475V40.4718H15.3475V32.4718ZM15.3475 32.4718C15.0861 32.4718 14.8788 32.3721 14.7463 32.246L9.23282 38.0427C10.8225 39.5547 12.9926 40.4718 15.3475 40.4718V32.4718ZM14.7463 32.2459C14.6811 32.184 14.6425 32.1235 14.6214 32.0765C14.602 32.0329 14.5939 31.9934 14.5939 31.9504H6.59387C6.59387 34.3736 7.6402 36.5279 9.23282 38.0427L14.7463 32.2459ZM14.5939 31.9504V30.1216H6.59387V31.9504H14.5939ZM14.5939 30.1216C14.5939 32.0403 13.0184 33.2579 11.5019 33.2579V25.2579C8.98253 25.2579 6.59387 27.249 6.59387 30.1216H14.5939ZM11.5019 33.2579C9.98554 33.2579 8.41001 32.0403 8.41001 30.1216H16.41C16.41 27.249 14.0213 25.2579 11.5019 25.2579V33.2579ZM8.41001 30.1216V31.9504H16.41V30.1216H8.41001ZM8.41001 31.9504C8.41001 33.9006 9.25564 35.6217 10.5169 36.8213L16.0303 31.0246C16.226 31.2107 16.41 31.5351 16.41 31.9504H8.41001ZM10.5169 36.8213C11.7755 38.0185 13.4902 38.7444 15.3475 38.7444V30.7444C15.5911 30.7444 15.8373 30.8411 16.0303 31.0246L10.5169 36.8213ZM15.3475 38.7444H15.3475V30.7444H15.3475V38.7444ZM15.3475 38.7444C15.9277 38.7444 16.5051 38.6753 17.0671 38.5342L15.1188 30.775C15.2147 30.751 15.2926 30.7444 15.3475 30.7444V38.7444ZM17.0678 38.534C17.6371 38.391 18.1814 38.1786 18.6889 37.9046L14.888 30.8652C14.9643 30.824 15.0418 30.7944 15.1182 30.7752L17.0678 38.534ZM14.0317 37.2833L14.0317 37.2833L19.5451 31.4866L19.5451 31.4866L14.0317 37.2833Z" fill="currentColor" mask="url(#path-6-inside-4_17_3)"/>
<mask id="path-8-inside-5_17_3" fill="currentColor">
<path d="M30.3177 35.8829C29.8828 35.6481 29.7303 35.1224 29.9771 34.7088C30.224 34.2952 30.7767 34.1502 31.2115 34.3849C31.4271 34.5013 31.6605 34.5927 31.907 34.6546C32.1401 34.7131 32.3899 34.7444 32.6525 34.7444H32.6525C33.4594 34.7444 34.1936 34.4298 34.7264 33.923C35.2592 33.4162 35.59 32.7179 35.59 31.9504V30.1216C35.59 29.6446 35.9966 29.2579 36.498 29.2579C36.9995 29.2579 37.4061 29.6446 37.4061 30.1216V31.9504C37.4061 33.1947 36.8716 34.3252 36.0104 35.1443C35.1494 35.9633 33.9608 36.4718 32.6525 36.4718H32.6525C32.2414 36.4718 31.8367 36.4194 31.4459 36.3213C31.0482 36.2214 30.6695 36.0729 30.3177 35.8829V35.8829Z"/>
</mask>
<path d="M30.3177 35.8829C29.8828 35.6481 29.7303 35.1224 29.9771 34.7088C30.224 34.2952 30.7767 34.1502 31.2115 34.3849C31.4271 34.5013 31.6605 34.5927 31.907 34.6546C32.1401 34.7131 32.3899 34.7444 32.6525 34.7444H32.6525C33.4594 34.7444 34.1936 34.4298 34.7264 33.923C35.2592 33.4162 35.59 32.7179 35.59 31.9504V30.1216C35.59 29.6446 35.9966 29.2579 36.498 29.2579C36.9995 29.2579 37.4061 29.6446 37.4061 30.1216V31.9504C37.4061 33.1947 36.8716 34.3252 36.0104 35.1443C35.1494 35.9633 33.9608 36.4718 32.6525 36.4718H32.6525C32.2414 36.4718 31.8367 36.4194 31.4459 36.3213C31.0482 36.2214 30.6695 36.0729 30.3177 35.8829V35.8829Z" fill="currentColor"/>
<path d="M30.3177 35.8829H34.3177V33.4966L32.2178 32.363L30.3177 35.8829ZM31.2115 34.3849L33.1122 30.8654L33.1117 30.8651L31.2115 34.3849ZM31.907 34.6546L30.9324 38.5341L30.9329 38.5342L31.907 34.6546ZM34.7264 33.923L31.9697 31.0246L31.9695 31.0247L34.7264 33.923ZM36.0104 35.1443L33.2537 32.2459L33.2537 32.246L36.0104 35.1443ZM31.4459 36.3213L30.4716 40.2008L30.4719 40.2009L31.4459 36.3213ZM30.3177 35.8829H26.3177V38.2689L28.4172 39.4026L30.3177 35.8829ZM32.2178 32.363C33.6948 33.1603 34.3845 35.1289 33.4121 36.7585L26.5422 32.6591C25.0762 35.1159 26.0709 38.1359 28.4175 39.4027L32.2178 32.363ZM33.4121 36.7585C32.5149 38.262 30.6813 38.6443 29.3114 37.9048L33.1117 30.8651C30.8721 29.656 27.933 30.3284 26.5422 32.6591L33.4121 36.7585ZM29.3108 37.9045C29.8187 38.1788 30.3632 38.3911 30.9324 38.5341L32.8816 30.7752C32.9579 30.7943 33.0355 30.8239 33.1122 30.8654L29.3108 37.9045ZM30.9329 38.5342C31.4949 38.6753 32.0723 38.7444 32.6525 38.7444V30.7444C32.7074 30.7444 32.7853 30.751 32.8812 30.775L30.9329 38.5342ZM32.6525 38.7444H32.6525V30.7444H32.6525V38.7444ZM32.6525 38.7444C34.5097 38.7444 36.2245 38.0185 37.4832 36.8212L31.9695 31.0247C32.1627 30.841 32.409 30.7444 32.6525 30.7444V38.7444ZM37.4831 36.8213C38.7443 35.6217 39.59 33.9006 39.59 31.9504H31.59C31.59 31.5351 31.774 31.2107 31.9697 31.0246L37.4831 36.8213ZM39.59 31.9504V30.1216H31.59V31.9504H39.59ZM39.59 30.1216C39.59 32.0403 38.0144 33.2579 36.498 33.2579V25.2579C33.9787 25.2579 31.59 27.249 31.59 30.1216H39.59ZM36.498 33.2579C34.9816 33.2579 33.4061 32.0403 33.4061 30.1216H41.4061C41.4061 27.249 39.0175 25.2579 36.498 25.2579V33.2579ZM33.4061 30.1216V31.9504H41.4061V30.1216H33.4061ZM33.4061 31.9504C33.4061 31.9935 33.398 32.0329 33.3786 32.0765C33.3575 32.1235 33.3189 32.184 33.2537 32.2459L38.7672 38.0427C40.3598 36.5279 41.4061 34.3736 41.4061 31.9504H33.4061ZM33.2537 32.246C33.1212 32.372 32.914 32.4718 32.6525 32.4718V40.4718C35.0075 40.4718 37.1776 39.5546 38.7672 38.0426L33.2537 32.246ZM32.6525 32.4718H32.6525V40.4718H32.6525V32.4718ZM32.6525 32.4718C32.5817 32.4718 32.504 32.4628 32.4199 32.4417L30.4719 40.2009C31.1694 40.376 31.9011 40.4718 32.6525 40.4718V32.4718ZM32.4202 32.4418C32.3495 32.424 32.2816 32.3974 32.2181 32.3632L28.4172 39.4026C29.0575 39.7483 29.7469 40.0188 30.4716 40.2008L32.4202 32.4418ZM34.3177 35.8829V35.8829H26.3177V35.8829H34.3177Z" fill="currentColor" mask="url(#path-8-inside-5_17_3)"/>
<mask id="path-10-inside-6_17_3" fill="currentColor">
<path d="M12.4201 28.9516C12.8804 28.7634 13.4141 28.9658 13.6119 29.4036C13.8097 29.8415 13.5969 30.3491 13.1366 30.5372C12.7674 30.6885 12.3733 30.7966 11.9626 30.8551C11.5933 30.9077 11.2102 30.9186 10.8195 30.8831C10.6231 30.8816 10.4197 30.8641 10.2109 30.8319C9.13282 30.6657 8.19664 30.0931 7.53503 29.3047C6.88356 28.5285 6.49231 27.5359 6.49231 26.515C6.49231 26.3044 6.51153 26.082 6.55121 25.849L7.70722 19.0656C7.78556 18.5961 8.24933 18.2758 8.74301 18.3503C9.23668 18.4248 9.57336 18.866 9.49503 19.3355L8.33902 26.1189C8.31842 26.2398 8.30845 26.3726 8.30845 26.515C8.30845 27.1404 8.55066 27.7514 8.95389 28.2318C9.34692 28.7001 9.88712 29.0378 10.4947 29.1314C10.5984 29.1474 10.7159 29.1558 10.8472 29.1558H10.8473V29.1577C10.8789 29.1578 10.9109 29.1593 10.9431 29.1626C11.1985 29.1892 11.4526 29.1832 11.7001 29.148C11.9483 29.1127 12.1901 29.0458 12.4201 28.9516L12.4201 28.9516Z"/>
</mask>
<path d="M12.4201 28.9516C12.8804 28.7634 13.4141 28.9658 13.6119 29.4036C13.8097 29.8415 13.5969 30.3491 13.1366 30.5372C12.7674 30.6885 12.3733 30.7966 11.9626 30.8551C11.5933 30.9077 11.2102 30.9186 10.8195 30.8831C10.6231 30.8816 10.4197 30.8641 10.2109 30.8319C9.13282 30.6657 8.19664 30.0931 7.53503 29.3047C6.88356 28.5285 6.49231 27.5359 6.49231 26.515C6.49231 26.3044 6.51153 26.082 6.55121 25.849L7.70722 19.0656C7.78556 18.5961 8.24933 18.2758 8.74301 18.3503C9.23668 18.4248 9.57336 18.866 9.49503 19.3355L8.33902 26.1189C8.31842 26.2398 8.30845 26.3726 8.30845 26.515C8.30845 27.1404 8.55066 27.7514 8.95389 28.2318C9.34692 28.7001 9.88712 29.0378 10.4947 29.1314C10.5984 29.1474 10.7159 29.1558 10.8472 29.1558H10.8473V29.1577C10.8789 29.1578 10.9109 29.1593 10.9431 29.1626C11.1985 29.1892 11.4526 29.1832 11.7001 29.148C11.9483 29.1127 12.1901 29.0458 12.4201 28.9516L12.4201 28.9516Z" fill="currentColor"/>
<path d="M12.4201 28.9516L8.87948 30.8128L10.5702 34.029L13.9335 32.6542L12.4201 28.9516ZM13.1366 30.5372L11.6231 26.8346L11.6199 26.8359L13.1366 30.5372ZM11.9626 30.8551L12.526 34.8153L12.5265 34.8152L11.9626 30.8551ZM10.8195 30.8831L11.1818 26.8995L11.0161 26.8844L10.8498 26.8832L10.8195 30.8831ZM10.2109 30.8319L9.60145 34.7852L9.60163 34.7852L10.2109 30.8319ZM7.53503 29.3047L10.599 26.7334L10.5989 26.7331L7.53503 29.3047ZM6.55121 25.849L2.60806 25.177L2.60801 25.1773L6.55121 25.849ZM7.70722 19.0656L11.6504 19.7376L11.6527 19.7239L7.70722 19.0656ZM8.74301 18.3503L9.33997 14.3951L9.33996 14.3951L8.74301 18.3503ZM9.49503 19.3355L13.4382 20.0075L13.4405 19.9938L9.49503 19.3355ZM8.33902 26.1189L12.2822 26.7909L12.2822 26.7909L8.33902 26.1189ZM8.95389 28.2318L12.0178 25.6604L12.0178 25.6603L8.95389 28.2318ZM10.4947 29.1314L9.88535 33.0848L9.88552 33.0848L10.4947 29.1314ZM10.8473 29.1558H14.8473V25.1558H10.8473V29.1558ZM10.8473 29.1577H6.84729V33.1523L10.8419 33.1577L10.8473 29.1577ZM10.9431 29.1626L11.3588 25.1842L11.3478 25.1831L10.9431 29.1626ZM11.7001 29.148L11.1365 25.1879L11.1364 25.1879L11.7001 29.148ZM12.4201 28.9516L15.9606 27.0903L14.2685 23.8714L10.9034 25.2503L12.4201 28.9516ZM13.9335 32.6542C12.5165 33.2334 10.7056 32.6859 9.96674 31.0507L17.2571 27.7566C16.1225 25.2457 13.2443 24.2934 10.9066 25.249L13.9335 32.6542ZM9.96674 31.0507C9.17554 29.2997 10.1137 27.4516 11.6231 26.8346L14.6501 34.2399C17.0802 33.2465 18.4439 30.3833 17.2571 27.7566L9.96674 31.0507ZM11.6199 26.8359C11.5559 26.8622 11.4818 26.8832 11.3987 26.8951L12.5265 34.8152C13.2648 34.71 13.9789 34.5149 14.6533 34.2386L11.6199 26.8359ZM11.3992 26.895C11.3358 26.904 11.2633 26.9069 11.1818 26.8995L10.4572 34.8666C11.1571 34.9303 11.8508 34.9113 12.526 34.8153L11.3992 26.895ZM10.8498 26.8832C10.8599 26.8833 10.8624 26.8837 10.857 26.8832C10.8516 26.8828 10.8394 26.8815 10.8201 26.8786L9.60163 34.7852C9.97951 34.8434 10.3775 34.8798 10.7892 34.8829L10.8498 26.8832ZM10.8203 26.8786C10.7773 26.8719 10.6886 26.84 10.599 26.7334L4.47101 31.876C5.70469 33.3461 7.48838 34.4594 9.60145 34.7852L10.8203 26.8786ZM10.5989 26.7331C10.5572 26.6836 10.5272 26.6302 10.5096 26.5836C10.4924 26.5382 10.4923 26.5142 10.4923 26.515H2.49231C2.49231 28.5504 3.26425 30.4383 4.4712 31.8763L10.5989 26.7331ZM10.4923 26.515C10.4923 26.547 10.4895 26.5498 10.4944 26.5207L2.60801 25.1773C2.53359 25.6142 2.49231 26.0617 2.49231 26.515H10.4923ZM10.4944 26.521L11.6504 19.7376L3.76406 18.3936L2.60806 25.177L10.4944 26.521ZM11.6527 19.7239C11.3429 21.5809 9.63687 22.5305 8.14605 22.3055L9.33996 14.3951C6.8618 14.0211 4.22825 15.6112 3.76175 18.4073L11.6527 19.7239ZM8.14605 22.3055C6.6148 22.0744 5.23054 20.5894 5.54956 18.6773L13.4405 19.9938C13.9162 17.1425 11.8586 14.7753 9.33997 14.3951L8.14605 22.3055ZM5.55187 18.6635L4.39587 25.447L12.2822 26.7909L13.4382 20.0075L5.55187 18.6635ZM4.39587 25.4469C4.33066 25.8295 4.30845 26.1916 4.30845 26.515H12.3084C12.3084 26.5535 12.3062 26.6501 12.2822 26.7909L4.39587 25.4469ZM4.30845 26.515C4.30845 28.1653 4.93865 29.6698 5.89001 30.8033L12.0178 25.6603C12.1627 25.8329 12.3084 26.1154 12.3084 26.515H4.30845ZM5.88994 30.8032C6.81704 31.9079 8.18987 32.8234 9.88535 33.0848L11.104 25.1781C11.5844 25.2522 11.8768 25.4923 12.0178 25.6604L5.88994 30.8032ZM9.88552 33.0848C10.2258 33.1372 10.5506 33.1558 10.8472 33.1558V25.1558C10.8811 25.1558 10.971 25.1576 11.1038 25.1781L9.88552 33.0848ZM10.8472 33.1558H10.8473V25.1558H10.8472V33.1558ZM6.84729 29.1558V29.1577H14.8473V29.1558H6.84729ZM10.8419 33.1577C10.7481 33.1576 10.6464 33.153 10.5383 33.142L11.3478 25.1831C11.1753 25.1655 11.0098 25.1579 10.8527 25.1577L10.8419 33.1577ZM10.5273 33.1409C11.118 33.2026 11.7011 33.1882 12.2638 33.1081L11.1364 25.1879C11.204 25.1783 11.279 25.1759 11.3588 25.1842L10.5273 33.1409ZM12.2636 33.1081C12.8499 33.0246 13.4113 32.8682 13.9367 32.6529L10.9034 25.2503C10.9689 25.2234 11.0467 25.2007 11.1365 25.1879L12.2636 33.1081ZM8.87947 30.8128L8.87948 30.8128L15.9606 27.0903L15.9606 27.0903L8.87947 30.8128Z" fill="currentColor" mask="url(#path-10-inside-6_17_3)"/>
<mask id="path-12-inside-7_17_3" fill="currentColor">
<path d="M34.8635 30.5372C34.4031 30.349 34.1903 29.8414 34.3882 29.4036C34.586 28.9657 35.1197 28.7633 35.58 28.9515C35.81 29.0457 36.0518 29.1126 36.3 29.1479C36.5475 29.1832 36.8016 29.1892 37.057 29.1625C37.0892 29.1592 37.1211 29.1577 37.1528 29.1576V29.1557H37.1528C37.2842 29.1557 37.4017 29.1474 37.5054 29.1314C38.113 29.0377 38.6532 28.7 39.0462 28.2318C39.4494 27.7513 39.6916 27.1403 39.6916 26.5149C39.6916 26.3725 39.6816 26.2397 39.661 26.1189L38.505 19.3354C38.4267 18.8659 38.7634 18.4248 39.2571 18.3503C39.7507 18.2758 40.2145 18.596 40.2928 19.0655L41.4488 25.849C41.4885 26.0819 41.5077 26.3043 41.5077 26.5149C41.5077 27.5359 41.1165 28.5284 40.4651 29.3047C39.8034 30.093 38.8672 30.6656 37.7892 30.8318C37.5804 30.864 37.3769 30.8815 37.1806 30.883C36.7899 30.9186 36.4068 30.9076 36.0375 30.8551C35.6268 30.7966 35.2327 30.6885 34.8635 30.5372V30.5372Z"/>
</mask>
<path d="M34.8635 30.5372C34.4031 30.349 34.1903 29.8414 34.3882 29.4036C34.586 28.9657 35.1197 28.7633 35.58 28.9515C35.81 29.0457 36.0518 29.1126 36.3 29.1479C36.5475 29.1832 36.8016 29.1892 37.057 29.1625C37.0892 29.1592 37.1211 29.1577 37.1528 29.1576V29.1557H37.1528C37.2842 29.1557 37.4017 29.1474 37.5054 29.1314C38.113 29.0377 38.6532 28.7 39.0462 28.2318C39.4494 27.7513 39.6916 27.1403 39.6916 26.5149C39.6916 26.3725 39.6816 26.2397 39.661 26.1189L38.505 19.3354C38.4267 18.8659 38.7634 18.4248 39.2571 18.3503C39.7507 18.2758 40.2145 18.596 40.2928 19.0655L41.4488 25.849C41.4885 26.0819 41.5077 26.3043 41.5077 26.5149C41.5077 27.5359 41.1165 28.5284 40.4651 29.3047C39.8034 30.093 38.8672 30.6656 37.7892 30.8318C37.5804 30.864 37.3769 30.8815 37.1806 30.883C36.7899 30.9186 36.4068 30.9076 36.0375 30.8551C35.6268 30.7966 35.2327 30.6885 34.8635 30.5372V30.5372Z" fill="currentColor"/>
<path d="M34.8635 30.5372H38.8635V27.8509L36.3769 26.8346L34.8635 30.5372ZM35.58 28.9515L37.0967 25.2502L37.0935 25.2489L35.58 28.9515ZM36.3 29.1479L36.8637 25.1878L36.8636 25.1878L36.3 29.1479ZM37.057 29.1625L36.6522 25.183L36.6413 25.1842L37.057 29.1625ZM37.1528 29.1576L37.1581 33.1576L41.1528 33.1523V29.1576H37.1528ZM37.1528 29.1557V25.1557H33.1528V29.1557H37.1528ZM37.5054 29.1314L38.1145 33.0847L38.1147 33.0847L37.5054 29.1314ZM39.0462 28.2318L42.1099 30.8035L42.1102 30.8032L39.0462 28.2318ZM39.661 26.1189L35.7179 26.7908L35.7179 26.7909L39.661 26.1189ZM38.505 19.3354L34.5595 19.9937L34.5619 20.0074L38.505 19.3354ZM39.2571 18.3503L38.6601 14.3951L38.6601 14.3951L39.2571 18.3503ZM40.2928 19.0655L36.3474 19.7238L36.3497 19.7375L40.2928 19.0655ZM41.4488 25.849L45.392 25.1773L45.392 25.177L41.4488 25.849ZM40.4651 29.3047L43.5289 31.8762L43.529 31.8761L40.4651 29.3047ZM37.7892 30.8318L38.3984 34.7851L38.3986 34.7851L37.7892 30.8318ZM37.1806 30.883L37.1503 26.8831L36.9837 26.8844L36.8178 26.8995L37.1806 30.883ZM36.0375 30.8551L35.4736 34.8151L35.4737 34.8151L36.0375 30.8551ZM34.8635 30.5372H30.8635V33.2207L33.3466 34.2384L34.8635 30.5372ZM36.3769 26.8346C37.8864 27.4516 38.8245 29.2996 38.0333 31.0506L30.743 27.7565C29.5561 30.3832 30.9198 33.2464 33.35 34.2398L36.3769 26.8346ZM38.0333 31.0506C37.2944 32.6859 35.4835 33.2333 34.0665 32.6541L37.0935 25.2489C34.7558 24.2933 31.8775 25.2456 30.743 27.7565L38.0333 31.0506ZM34.0633 32.6528C34.5889 32.8682 35.1503 33.0246 35.7365 33.108L36.8636 25.1878C36.9533 25.2006 37.0311 25.2233 37.0967 25.2502L34.0633 32.6528ZM35.7363 33.108C36.299 33.1881 36.882 33.2026 37.4727 33.1408L36.6413 25.1842C36.7211 25.1758 36.7961 25.1782 36.8637 25.1878L35.7363 33.108ZM37.4618 33.142C37.3536 33.153 37.252 33.1575 37.1581 33.1576L37.1474 25.1577C36.9902 25.1579 36.8247 25.1655 36.6522 25.183L37.4618 33.142ZM41.1528 29.1576V29.1557H33.1528V29.1576H41.1528ZM37.1528 33.1557H37.1528V25.1557H37.1528V33.1557ZM37.1528 33.1557C37.4494 33.1557 37.7743 33.1372 38.1145 33.0847L36.8963 25.178C37.0291 25.1576 37.119 25.1557 37.1528 25.1557V33.1557ZM38.1147 33.0847C39.8103 32.8234 41.183 31.9077 42.1099 30.8035L35.9825 25.6601C36.1233 25.4923 36.4157 25.2521 36.8961 25.1781L38.1147 33.0847ZM42.1102 30.8032C43.0616 29.6695 43.6916 28.1651 43.6916 26.5149H35.6916C35.6916 26.1155 35.8373 25.8331 35.9822 25.6604L42.1102 30.8032ZM43.6916 26.5149C43.6916 26.1915 43.6694 25.8294 43.6042 25.4469L35.7179 26.7909C35.6939 26.6501 35.6916 26.5535 35.6916 26.5149H43.6916ZM43.6042 25.4469L42.4482 18.6635L34.5619 20.0074L35.7179 26.7908L43.6042 25.4469ZM42.4505 18.6772C42.7695 20.5894 41.3852 22.0744 39.854 22.3055L38.6601 14.3951C36.1415 14.7752 34.0839 17.1424 34.5596 19.9937L42.4505 18.6772ZM39.854 22.3055C38.3632 22.5305 36.6572 21.5808 36.3474 19.7238L44.2383 18.4073C43.7718 15.6112 41.1383 14.021 38.6601 14.3951L39.854 22.3055ZM36.3497 19.7375L37.5057 26.5209L45.392 25.177L44.236 18.3936L36.3497 19.7375ZM37.5056 26.5206C37.5106 26.5497 37.5077 26.547 37.5077 26.5149H45.5077C45.5077 26.0617 45.4665 25.6141 45.392 25.1773L37.5056 26.5206ZM37.5077 26.5149C37.5077 26.5142 37.5077 26.5382 37.4905 26.5836C37.4728 26.6302 37.4428 26.6836 37.4011 26.7333L43.529 31.8761C44.7359 30.4381 45.5077 28.5503 45.5077 26.5149H37.5077ZM37.4012 26.7331C37.3115 26.84 37.2228 26.8719 37.1797 26.8785L38.3986 34.7851C40.5117 34.4594 42.2952 33.3461 43.5289 31.8762L37.4012 26.7331ZM37.1799 26.8785C37.1607 26.8815 37.1485 26.8827 37.1431 26.8831C37.1377 26.8836 37.1402 26.8832 37.1503 26.8831L37.2109 34.8829C37.6226 34.8798 38.0205 34.8434 38.3984 34.7851L37.1799 26.8785ZM36.8178 26.8995C36.7366 26.9069 36.6645 26.904 36.6014 26.895L35.4737 34.8151C36.1491 34.9113 36.8432 34.9303 37.5433 34.8665L36.8178 26.8995ZM36.6015 26.895C36.518 26.8831 36.444 26.862 36.3803 26.836L33.3466 34.2384C34.0214 34.515 34.7356 34.71 35.4736 34.8151L36.6015 26.895ZM38.8635 30.5372V30.5372H30.8635V30.5372H38.8635Z" fill="currentColor" mask="url(#path-12-inside-7_17_3)"/>
<mask id="path-14-inside-8_17_3" fill="currentColor">
<path d="M28.5223 42.9233C28.5223 42.4463 28.9289 42.0596 29.4304 42.0596C29.9319 42.0596 30.3384 42.4463 30.3384 42.9233C30.3384 44.2243 29.6246 45.1432 28.4566 45.7455C27.3199 46.3317 25.7322 46.5873 24 46.5873C22.2678 46.5873 20.6802 46.3317 19.5434 45.7455C18.3754 45.1432 17.6616 44.2243 17.6616 42.9233C17.6616 42.4463 18.0681 42.0596 18.5696 42.0596C19.0711 42.0596 19.4777 42.4463 19.4777 42.9233C19.4777 43.5021 19.8309 43.9293 20.409 44.2274C21.2632 44.6678 22.5499 44.86 24 44.86C25.4502 44.86 26.7368 44.6679 27.591 44.2274C28.1691 43.9293 28.5223 43.5021 28.5223 42.9233H28.5223Z"/>
</mask>
<path d="M28.5223 42.9233C28.5223 42.4463 28.9289 42.0596 29.4304 42.0596C29.9319 42.0596 30.3384 42.4463 30.3384 42.9233C30.3384 44.2243 29.6246 45.1432 28.4566 45.7455C27.3199 46.3317 25.7322 46.5873 24 46.5873C22.2678 46.5873 20.6802 46.3317 19.5434 45.7455C18.3754 45.1432 17.6616 44.2243 17.6616 42.9233C17.6616 42.4463 18.0681 42.0596 18.5696 42.0596C19.0711 42.0596 19.4777 42.4463 19.4777 42.9233C19.4777 43.5021 19.8309 43.9293 20.409 44.2274C21.2632 44.6678 22.5499 44.86 24 44.86C25.4502 44.86 26.7368 44.6679 27.591 44.2274C28.1691 43.9293 28.5223 43.5021 28.5223 42.9233H28.5223Z" fill="currentColor"/>
<path d="M28.5223 42.9233H24.5223V46.9233H28.5223V42.9233ZM28.4566 45.7455L30.2899 49.3007L30.2899 49.3007L28.4566 45.7455ZM19.5434 45.7455L17.7101 49.3007L17.7102 49.3007L19.5434 45.7455ZM20.409 44.2274L18.5757 47.7825L18.5758 47.7826L20.409 44.2274ZM27.591 44.2274L25.7577 40.6722L25.7577 40.6723L27.591 44.2274ZM28.5223 42.9233H32.5223V38.9233H28.5223V42.9233ZM32.5223 42.9233C32.5223 44.842 30.9468 46.0596 29.4304 46.0596V38.0596C26.911 38.0596 24.5223 40.0507 24.5223 42.9233H32.5223ZM29.4304 46.0596C27.9139 46.0596 26.3384 44.8419 26.3384 42.9233H34.3384C34.3384 40.0507 31.9498 38.0596 29.4304 38.0596V46.0596ZM26.3384 42.9233C26.3384 42.8786 26.3452 42.7838 26.3835 42.6587C26.4222 42.5322 26.4809 42.4144 26.5491 42.3162C26.6836 42.1224 26.7769 42.1112 26.6232 42.1904L30.2899 49.3007C32.444 48.1898 34.3384 46.0732 34.3384 42.9233H26.3384ZM26.6232 42.1904C26.304 42.355 25.4536 42.5873 24 42.5873V50.5873C26.0108 50.5873 28.3357 50.3084 30.2899 49.3007L26.6232 42.1904ZM24 42.5873C22.5465 42.5873 21.696 42.355 21.3767 42.1904L17.7102 49.3007C19.6644 50.3084 21.9892 50.5873 24 50.5873V42.5873ZM21.3768 42.1904C21.2231 42.1112 21.3164 42.1224 21.4509 42.3162C21.5191 42.4144 21.5778 42.5322 21.6165 42.6587C21.6547 42.7838 21.6616 42.8786 21.6616 42.9233H13.6616C13.6616 46.0732 15.556 48.1898 17.7101 49.3007L21.3768 42.1904ZM21.6616 42.9233C21.6616 44.8419 20.086 46.0596 18.5696 46.0596V38.0596C16.0502 38.0596 13.6616 40.0507 13.6616 42.9233H21.6616ZM18.5696 46.0596C17.0532 46.0596 15.4777 44.8419 15.4777 42.9233H23.4777C23.4777 40.0507 21.089 38.0596 18.5696 38.0596V46.0596ZM15.4777 42.9233C15.4777 45.5243 17.209 47.0778 18.5757 47.7825L22.2422 40.6722C22.3284 40.7166 22.6374 40.8907 22.9389 41.2972C23.2785 41.7548 23.4777 42.3354 23.4777 42.9233H15.4777ZM18.5758 47.7826C20.2907 48.6668 22.3552 48.86 24 48.86V40.86C23.4404 40.86 22.9866 40.8221 22.6479 40.7648C22.2879 40.704 22.1842 40.6423 22.2422 40.6722L18.5758 47.7826ZM24 48.86C25.6447 48.86 27.7093 48.6669 29.4244 47.7825L25.7577 40.6723C25.8157 40.6423 25.7121 40.704 25.3522 40.7648C25.0134 40.8221 24.5597 40.86 24 40.86V48.86ZM29.4243 47.7825C30.791 47.0778 32.5223 45.5243 32.5223 42.9233H24.5223C24.5223 42.3354 24.7215 41.7548 25.061 41.2972C25.3626 40.8907 25.6716 40.7167 25.7577 40.6722L29.4243 47.7825ZM28.5223 38.9233H28.5223V46.9233H28.5223V38.9233Z" fill="currentColor" mask="url(#path-14-inside-8_17_3)"/>
<mask id="path-16-inside-9_17_3" fill="currentColor">
<path d="M47.5722 21.3309C47.9973 21.5824 48.1275 22.1142 47.8631 22.5185C47.5986 22.9228 47.0395 23.0466 46.6145 22.7951C42.7769 20.5256 38.6793 18.9401 35.2667 18.4174C33.4571 18.1403 31.8608 18.165 30.6327 18.5519C29.5379 18.8967 28.7467 19.548 28.3916 20.5555C28.156 21.2238 28.0939 22.0593 28.2375 23.0779C28.3041 23.5493 27.9563 23.9829 27.4607 24.0462C27.2373 24.0748 27.0221 24.0232 26.8468 23.9149L23.5495 22.1095C23.1166 21.8729 22.9673 21.3472 23.2161 20.9354C23.4649 20.5236 24.0176 20.3817 24.4505 20.6183L26.3604 21.664C26.3924 21.0573 26.4994 20.5063 26.6747 20.0089C27.23 18.4338 28.4255 17.4286 30.0651 16.9122C31.5714 16.4378 33.4577 16.3964 35.5505 16.717C39.2005 17.276 43.5413 18.9471 47.5723 21.3309L47.5722 21.3309Z"/>
</mask>
<path d="M47.5722 21.3309C47.9973 21.5824 48.1275 22.1142 47.8631 22.5185C47.5986 22.9228 47.0395 23.0466 46.6145 22.7951C42.7769 20.5256 38.6793 18.9401 35.2667 18.4174C33.4571 18.1403 31.8608 18.165 30.6327 18.5519C29.5379 18.8967 28.7467 19.548 28.3916 20.5555C28.156 21.2238 28.0939 22.0593 28.2375 23.0779C28.3041 23.5493 27.9563 23.9829 27.4607 24.0462C27.2373 24.0748 27.0221 24.0232 26.8468 23.9149L23.5495 22.1095C23.1166 21.8729 22.9673 21.3472 23.2161 20.9354C23.4649 20.5236 24.0176 20.3817 24.4505 20.6183L26.3604 21.664C26.3924 21.0573 26.4994 20.5063 26.6747 20.0089C27.23 18.4338 28.4255 17.4286 30.0651 16.9122C31.5714 16.4378 33.4577 16.3964 35.5505 16.717C39.2005 17.276 43.5413 18.9471 47.5723 21.3309L47.5722 21.3309Z" fill="currentColor"/>
<path d="M47.5722 21.3309L48.4976 17.4394L45.5352 24.7733L47.5722 21.3309ZM47.8631 22.5185L44.5156 20.3288L44.5156 20.3288L47.8631 22.5185ZM46.6145 22.7951L48.6516 19.3527L48.6506 19.3521L46.6145 22.7951ZM35.2667 18.4174L35.8723 14.4635L35.8722 14.4635L35.2667 18.4174ZM30.6327 18.5519L31.8343 22.3671L31.8343 22.3671L30.6327 18.5519ZM28.3916 20.5555L24.6191 19.2257L24.6191 19.2258L28.3916 20.5555ZM28.2375 23.0779L24.2767 23.6366L24.2769 23.6374L28.2375 23.0779ZM27.4607 24.0462L26.9537 20.0785L26.9534 20.0785L27.4607 24.0462ZM26.8468 23.9149L28.9501 20.5124L28.8603 20.457L28.7678 20.4063L26.8468 23.9149ZM23.5495 22.1095L25.4705 18.601L25.4679 18.5995L23.5495 22.1095ZM23.2161 20.9354L19.7924 18.867L19.7924 18.867L23.2161 20.9354ZM24.4505 20.6183L26.3715 17.1098L26.3689 17.1083L24.4505 20.6183ZM26.3604 21.664L24.4395 25.1726L30.0207 28.2284L30.3549 21.8741L26.3604 21.664ZM26.6747 20.0089L22.9023 18.6791L22.9022 18.6793L26.6747 20.0089ZM30.0651 16.9122L31.2667 20.7275L31.2668 20.7274L30.0651 16.9122ZM35.5505 16.717L36.1561 12.7631L36.156 12.7631L35.5505 16.717ZM47.5723 21.3309L46.647 25.2224L49.6084 17.8879L47.5723 21.3309ZM45.5352 24.7733C44.0757 23.9097 43.4835 21.9067 44.5156 20.3288L51.2105 24.7082C52.7716 22.3217 51.9189 19.2552 49.6093 17.8885L45.5352 24.7733ZM44.5156 20.3288C45.4647 18.8779 47.3031 18.5547 48.6516 19.3527L44.5774 26.2375C46.776 27.5386 49.7325 26.9676 51.2105 24.7081L44.5156 20.3288ZM48.6506 19.3521C44.4999 16.8974 39.9176 15.0831 35.8723 14.4635L34.6611 22.3713C37.4411 22.7971 41.0539 24.1538 44.5783 26.2381L48.6506 19.3521ZM35.8722 14.4635C33.7639 14.1406 31.4802 14.0912 29.431 14.7366L31.8343 22.3671C32.2415 22.2389 33.1503 22.1399 34.6612 22.3713L35.8722 14.4635ZM29.431 14.7366C27.4307 15.3667 25.4855 16.7676 24.6191 19.2257L32.1641 21.8852C32.1418 21.9485 32.1044 22.028 32.0476 22.1118C31.9908 22.1955 31.928 22.2636 31.8697 22.3147C31.754 22.416 31.7066 22.4073 31.8343 22.3671L29.431 14.7366ZM24.6191 19.2258C24.1108 20.6679 24.0723 22.1869 24.2767 23.6366L32.1983 22.5193C32.1155 21.9317 32.2013 21.7797 32.1641 21.8851L24.6191 19.2258ZM24.2769 23.6374C24.0059 21.7196 25.4235 20.274 26.9537 20.0785L27.9678 28.014C30.4891 27.6918 32.6023 25.3791 32.1982 22.5185L24.2769 23.6374ZM26.9534 20.0785C27.6614 19.988 28.3648 20.1507 28.9501 20.5124L24.7436 27.3173C25.6794 27.8957 26.8133 28.1616 27.968 28.0139L26.9534 20.0785ZM28.7678 20.4063L25.4705 18.601L21.6285 25.6181L24.9259 27.4234L28.7678 20.4063ZM25.4679 18.5995C26.9437 19.4062 27.6204 21.3807 26.6398 23.0038L19.7924 18.867C18.3142 21.3137 19.2894 24.3396 21.6311 25.6195L25.4679 18.5995ZM26.6398 23.0038C25.735 24.5014 23.8996 24.8756 22.5321 24.1283L26.3689 17.1083C24.1355 15.8877 21.1947 16.5458 19.7924 18.867L26.6398 23.0038ZM22.5295 24.1268L24.4395 25.1726L28.2814 18.1555L26.3715 17.1098L22.5295 24.1268ZM30.3549 21.8741C30.3688 21.6108 30.4113 21.4408 30.4473 21.3386L22.9022 18.6793C22.5876 19.5719 22.4159 20.5038 22.366 21.454L30.3549 21.8741ZM30.4472 21.3388C30.5051 21.1746 30.5673 21.101 30.63 21.0449C30.7078 20.9753 30.8888 20.8465 31.2667 20.7275L28.8636 13.097C26.2525 13.9193 23.9497 15.7079 22.9023 18.6791L30.4472 21.3388ZM31.2668 20.7274C31.9791 20.5031 33.1935 20.4026 34.9449 20.6709L36.156 12.7631C33.722 12.3903 31.1636 12.3725 28.8634 13.097L31.2668 20.7274ZM34.9449 20.6709C37.9703 21.1343 41.8274 22.5806 45.5362 24.7739L49.6084 17.8879C45.2552 15.3136 40.4307 13.4178 36.1561 12.7631L34.9449 20.6709ZM48.4976 17.4394L48.4976 17.4394L46.6469 25.2224L46.647 25.2224L48.4976 17.4394Z" fill="currentColor" mask="url(#path-16-inside-9_17_3)"/>
<path d="M0.91907 22.0069L0.853236 22.0499L0.91907 22.0069Z" fill="currentColor" stroke="currentColor" stroke-width="4"/>
<mask id="path-19-inside-10_17_3" fill="currentColor">
<path d="M47.5723 18.1598C47.9973 18.4113 48.1276 18.943 47.8631 19.3473C47.5986 19.7516 47.0396 19.8755 46.6145 19.624C45.3664 18.8858 44.1023 18.225 42.8536 17.6538C41.5939 17.0777 40.3291 16.5826 39.0914 16.1814C38.6173 16.0286 38.3632 15.5391 38.5238 15.0882C38.6844 14.6373 39.1991 14.3957 39.6731 14.5484C40.9598 14.9655 42.2915 15.4879 43.6339 16.1019C44.9672 16.7117 46.2913 17.4022 47.5723 18.1598Z"/>
</mask>
<path d="M47.5723 18.1598C47.9973 18.4113 48.1276 18.943 47.8631 19.3473C47.5986 19.7516 47.0396 19.8755 46.6145 19.624C45.3664 18.8858 44.1023 18.225 42.8536 17.6538C41.5939 17.0777 40.3291 16.5826 39.0914 16.1814C38.6173 16.0286 38.3632 15.5391 38.5238 15.0882C38.6844 14.6373 39.1991 14.3957 39.6731 14.5484C40.9598 14.9655 42.2915 15.4879 43.6339 16.1019C44.9672 16.7117 46.2913 17.4022 47.5723 18.1598Z" fill="currentColor"/>
<path d="M47.8631 19.3473L44.5157 17.1577L44.5157 17.1577L47.8631 19.3473ZM46.6145 19.624L48.6516 16.1815L48.6507 16.181L46.6145 19.624ZM42.8536 17.6538L41.1898 21.2914L41.1898 21.2914L42.8536 17.6538ZM39.0914 16.1814L40.3248 12.3763L40.3182 12.3741L39.0914 16.1814ZM39.6731 14.5484L40.9065 10.7433L40.9 10.7412L39.6731 14.5484ZM43.6339 16.1019L41.9701 19.7395L41.9702 19.7395L43.6339 16.1019ZM45.5352 21.6022C44.0757 20.7385 43.4835 18.7355 44.5157 17.1577L51.2105 21.537C52.7716 19.1505 51.919 16.0841 49.6093 14.7173L45.5352 21.6022ZM44.5157 17.1577C45.4647 15.7068 47.3031 15.3836 48.6516 16.1815L44.5774 23.0664C46.7761 24.3675 49.7325 23.7965 51.2105 21.537L44.5157 17.1577ZM48.6507 16.181C47.2856 15.3737 45.8974 14.6475 44.5173 14.0163L41.1898 21.2914C42.3072 21.8025 43.4471 22.3979 44.5783 23.0669L48.6507 16.181ZM44.5174 14.0163C43.1267 13.3802 41.7183 12.828 40.3248 12.3763L37.8579 19.9864C38.9398 20.3371 40.0611 20.7752 41.1898 21.2914L44.5174 14.0163ZM40.3182 12.3741C41.8418 12.8651 42.9406 14.6093 42.2919 16.4304L34.7557 13.746C33.7858 16.4689 35.3928 19.1921 37.8645 19.9886L40.3182 12.3741ZM42.2919 16.4304C41.6794 18.15 39.8915 18.8214 38.4463 18.3556L40.9 10.7412C38.5066 9.96995 35.6895 11.1247 34.7557 13.746L42.2919 16.4304ZM38.4398 18.3535C39.567 18.7189 40.755 19.1837 41.9701 19.7395L45.2977 12.4644C43.828 11.7921 42.3526 11.212 40.9065 10.7433L38.4398 18.3535ZM41.9702 19.7395C43.1771 20.2915 44.3768 20.9172 45.5361 21.6027L49.6084 14.7168C48.2058 13.8873 46.7573 13.1319 45.2976 12.4643L41.9702 19.7395Z" fill="currentColor" mask="url(#path-19-inside-10_17_3)"/>
<path d="M1.09774 17.7718C0.896159 17.8861 0.69548 18.002 0.495833 18.1196C0.495701 18.1196 0.495569 18.1197 0.495437 18.1198C0.472863 18.1331 0.450302 18.1464 0.427755 18.1597C0.00267801 18.4113 -0.127544 18.943 0.136922 19.3473C0.387155 19.7299 0.901118 19.8613 1.31579 19.6613L1.09774 17.7718ZM1.09774 17.7718C1.37138 17.8211 1.63166 17.9789 1.81064 18.2525L0.919273 18.8356L1.81064 18.2525C2.03356 18.5933 2.0491 18.9843 1.92164 19.3122L1.09774 17.7718Z" fill="currentColor" stroke="currentColor" stroke-width="4"/>
<mask id="path-22-inside-11_17_3" fill="currentColor">
<path d="M18.8079 17.4732C19.4536 17.9034 19.948 18.4608 20.2796 19.0838C20.6226 19.7281 20.7921 20.4451 20.7757 21.1659C20.7683 21.5257 20.5297 21.8295 20.1975 21.9518L20.1975 21.952C19.4891 22.2135 18.7227 22.3072 17.9706 22.221C17.2428 22.1375 16.5237 21.8859 15.8776 21.4554C15.2319 21.0252 14.7375 20.4677 14.4059 19.8448C14.063 19.2005 13.8934 18.4835 13.9098 17.7627C13.9172 17.4029 14.1558 17.0991 14.488 16.9768L14.488 16.9766C15.1964 16.7151 15.9628 16.6213 16.7149 16.7076C17.4427 16.791 18.1618 17.0427 18.8079 17.4732ZM18.662 19.8598C18.4603 19.4806 18.1612 19.1426 17.7721 18.8834C17.3834 18.6243 16.9467 18.4724 16.5021 18.4215C16.2615 18.3939 16.0197 18.3956 15.7831 18.4257C15.834 18.6476 15.9145 18.8639 16.0235 19.0688C16.2253 19.448 16.5244 19.786 16.9134 20.0452C17.3022 20.3043 17.7388 20.4561 18.1834 20.5071C18.424 20.5347 18.6657 20.5329 18.9024 20.5028C18.8516 20.2809 18.7711 20.0646 18.662 19.8598H18.662Z"/>
</mask>
<path d="M18.8079 17.4732C19.4536 17.9034 19.948 18.4608 20.2796 19.0838C20.6226 19.7281 20.7921 20.4451 20.7757 21.1659C20.7683 21.5257 20.5297 21.8295 20.1975 21.9518L20.1975 21.952C19.4891 22.2135 18.7227 22.3072 17.9706 22.221C17.2428 22.1375 16.5237 21.8859 15.8776 21.4554C15.2319 21.0252 14.7375 20.4677 14.4059 19.8448C14.063 19.2005 13.8934 18.4835 13.9098 17.7627C13.9172 17.4029 14.1558 17.0991 14.488 16.9768L14.488 16.9766C15.1964 16.7151 15.9628 16.6213 16.7149 16.7076C17.4427 16.791 18.1618 17.0427 18.8079 17.4732ZM18.662 19.8598C18.4603 19.4806 18.1612 19.1426 17.7721 18.8834C17.3834 18.6243 16.9467 18.4724 16.5021 18.4215C16.2615 18.3939 16.0197 18.3956 15.7831 18.4257C15.834 18.6476 15.9145 18.8639 16.0235 19.0688C16.2253 19.448 16.5244 19.786 16.9134 20.0452C17.3022 20.3043 17.7388 20.4561 18.1834 20.5071C18.424 20.5347 18.6657 20.5329 18.9024 20.5028C18.8516 20.2809 18.7711 20.0646 18.662 19.8598H18.662Z" fill="currentColor"/>
<path d="M20.2796 19.0838L16.7484 20.9629L16.7487 20.9634L20.2796 19.0838ZM20.7757 21.1659L16.7767 21.075L16.7766 21.0835L20.7757 21.1659ZM20.1975 21.9518L18.8155 18.1981L14.8791 19.6474L16.5136 23.5105L20.1975 21.9518ZM20.1975 21.952L21.5827 25.7045L25.5145 24.2532L23.8814 20.3933L20.1975 21.952ZM17.9706 22.221L17.5146 26.1949L17.5152 26.195L17.9706 22.221ZM15.8776 21.4554L13.6595 24.7841L13.6596 24.7842L15.8776 21.4554ZM14.4059 19.8448L17.937 17.9655L17.937 17.9654L14.4059 19.8448ZM13.9098 17.7627L17.9088 17.8534L17.9089 17.8451L13.9098 17.7627ZM14.488 16.9768L15.87 20.7305L19.8064 19.2812L18.1719 15.4181L14.488 16.9768ZM14.488 16.9766L13.1028 13.2241L9.17096 14.6754L10.8041 18.5353L14.488 16.9766ZM16.7149 16.7076L16.259 20.6815L16.2593 20.6816L16.7149 16.7076ZM18.662 19.8598V23.8598H25.3219L22.1932 17.9806L18.662 19.8598ZM17.7721 18.8834L19.9901 15.5546L19.9901 15.5546L17.7721 18.8834ZM16.5021 18.4215L16.0464 22.3954L16.0466 22.3955L16.5021 18.4215ZM15.7831 18.4257L15.2778 14.4578L10.897 15.0156L11.8843 19.32L15.7831 18.4257ZM16.0235 19.0688L19.5546 17.1897L19.5545 17.1895L16.0235 19.0688ZM16.9134 20.0452L14.6954 23.374L14.6955 23.374L16.9134 20.0452ZM18.1834 20.5071L17.7276 24.4811L17.7278 24.4811L18.1834 20.5071ZM18.9024 20.5028L19.407 24.4709L23.7878 23.9139L22.8013 19.6093L18.9024 20.5028ZM18.662 19.8598V15.8598H12.0012L15.1312 21.7394L18.662 19.8598ZM16.5898 20.8018C16.6873 20.8668 16.7294 20.9271 16.7484 20.9629L23.8107 17.2047C23.1667 15.9945 22.22 14.9401 21.026 14.1445L16.5898 20.8018ZM16.7487 20.9634C16.7699 21.0032 16.7775 21.0418 16.7768 21.075L24.7747 21.2569C24.8067 19.8485 24.4752 18.4531 23.8105 17.2043L16.7487 20.9634ZM16.7766 21.0835C16.8062 19.6457 17.7508 18.5901 18.8155 18.1981L21.5794 25.7055C23.3087 25.0688 24.7304 23.4057 24.7749 21.2484L16.7766 21.0835ZM16.5136 23.5105L16.5137 23.5107L23.8814 20.3933L23.8813 20.3931L16.5136 23.5105ZM18.8124 18.1995C18.6875 18.2456 18.5513 18.2614 18.4261 18.247L17.5152 26.195C18.8941 26.353 20.2908 26.1814 21.5827 25.7045L18.8124 18.1995ZM18.4267 18.2471C18.3072 18.2334 18.1959 18.1935 18.0956 18.1267L13.6596 24.7842C14.8515 25.5783 16.1784 26.0416 17.5146 26.1949L18.4267 18.2471ZM18.0957 18.1268C17.9984 18.0619 17.9562 18.0015 17.937 17.9655L10.8749 21.7241C11.5188 22.9339 12.4654 23.9884 13.6595 24.7841L18.0957 18.1268ZM17.937 17.9654C17.9156 17.9253 17.908 17.8866 17.9087 17.8534L9.9108 17.6719C9.87884 19.0804 10.2104 20.4756 10.8749 21.7241L17.937 17.9654ZM17.9089 17.8451C17.8793 19.283 16.9347 20.3385 15.87 20.7305L13.1061 13.2231C11.3769 13.8597 9.95511 15.5228 9.91062 17.6802L17.9089 17.8451ZM18.1719 15.4181L18.1718 15.4179L10.8041 18.5353L10.8042 18.5355L18.1719 15.4181ZM15.8731 20.7291C15.9983 20.6829 16.1343 20.6672 16.259 20.6815L17.1708 12.7337C15.7912 12.5754 14.3944 12.7473 13.1028 13.2241L15.8731 20.7291ZM16.2593 20.6816C16.3781 20.6952 16.4894 20.735 16.5899 20.8019L21.0259 14.1444C19.8342 13.3504 18.5072 12.8869 17.1705 12.7336L16.2593 20.6816ZM22.1932 17.9806C21.6822 17.0205 20.9333 16.1831 19.9901 15.5546L15.5541 22.2121C15.3891 22.1021 15.2384 21.9408 15.1309 21.7389L22.1932 17.9806ZM19.9901 15.5546C19.0476 14.9267 18.0012 14.5671 16.9575 14.4475L16.0466 22.3955C15.8923 22.3778 15.7191 22.322 15.5541 22.2121L19.9901 15.5546ZM16.9577 14.4475C16.398 14.3833 15.8337 14.387 15.2778 14.4578L16.2883 22.3937C16.2058 22.4042 16.1249 22.4044 16.0464 22.3954L16.9577 14.4475ZM11.8843 19.32C12.014 19.8855 12.2183 20.433 12.4925 20.9482L19.5545 17.1895C19.6106 17.2949 19.6539 17.4098 19.6818 17.5315L11.8843 19.32ZM12.4924 20.948C13.0033 21.9081 13.7522 22.7455 14.6954 23.374L19.1314 16.7165C19.2965 16.8265 19.4472 16.9878 19.5546 17.1897L12.4924 20.948ZM14.6955 23.374C15.638 24.002 16.6844 24.3614 17.7276 24.4811L18.6393 16.5332C18.7932 16.5508 18.9663 16.6065 19.1314 16.7165L14.6955 23.374ZM17.7278 24.4811C18.2884 24.5454 18.8525 24.5414 19.407 24.4709L18.3979 16.5348C18.479 16.5245 18.5596 16.5241 18.639 16.5332L17.7278 24.4811ZM22.8013 19.6093C22.6716 19.0433 22.4672 18.4955 22.1929 17.9801L15.1312 21.7394C15.0749 21.6337 15.0315 21.5185 15.0035 21.3963L22.8013 19.6093ZM18.662 23.8598H18.662V15.8598H18.662V23.8598Z" fill="currentColor" mask="url(#path-22-inside-11_17_3)"/>
<mask id="path-24-inside-12_17_3" fill="currentColor">
<path d="M30.2278 18.8834C29.8387 19.1426 29.5397 19.4807 29.3379 19.8598C29.2289 20.0646 29.1485 20.2809 29.0976 20.5028C29.3342 20.5329 29.5759 20.5347 29.8165 20.5071C30.2612 20.4561 30.6978 20.3043 31.0866 20.0452C31.4756 19.786 31.7747 19.448 31.9765 19.0688C32.0855 18.8639 32.166 18.6476 32.2169 18.4257C31.9803 18.3956 31.7385 18.3939 31.4979 18.4215C31.0533 18.4724 30.6166 18.6243 30.2278 18.8834ZM27.7204 19.0838C28.052 18.4608 28.5463 17.9034 29.192 17.4732C29.8382 17.0427 30.5573 16.791 31.2851 16.7076C32.0372 16.6213 32.8036 16.7151 33.512 16.9766L33.5119 16.9768C33.8442 17.0991 34.0828 17.4029 34.0902 17.7627C34.1066 18.4835 33.937 19.2005 33.594 19.8448C33.2625 20.4677 32.7681 21.0252 32.1224 21.4554C31.4763 21.8859 30.7571 22.1375 30.0293 22.221C29.2772 22.3072 28.5108 22.2135 27.8024 21.952L27.8025 21.9518C27.4702 21.8295 27.2316 21.5257 27.2242 21.1659C27.2079 20.4451 27.3775 19.7281 27.7204 19.0838Z"/>
</mask>
<path d="M30.2278 18.8834C29.8387 19.1426 29.5397 19.4807 29.3379 19.8598C29.2289 20.0646 29.1485 20.2809 29.0976 20.5028C29.3342 20.5329 29.5759 20.5347 29.8165 20.5071C30.2612 20.4561 30.6978 20.3043 31.0866 20.0452C31.4756 19.786 31.7747 19.448 31.9765 19.0688C32.0855 18.8639 32.166 18.6476 32.2169 18.4257C31.9803 18.3956 31.7385 18.3939 31.4979 18.4215C31.0533 18.4724 30.6166 18.6243 30.2278 18.8834ZM27.7204 19.0838C28.052 18.4608 28.5463 17.9034 29.192 17.4732C29.8382 17.0427 30.5573 16.791 31.2851 16.7076C32.0372 16.6213 32.8036 16.7151 33.512 16.9766L33.5119 16.9768C33.8442 17.0991 34.0828 17.4029 34.0902 17.7627C34.1066 18.4835 33.937 19.2005 33.594 19.8448C33.2625 20.4677 32.7681 21.0252 32.1224 21.4554C31.4763 21.8859 30.7571 22.1375 30.0293 22.221C29.2772 22.3072 28.5108 22.2135 27.8024 21.952L27.8025 21.9518C27.4702 21.8295 27.2316 21.5257 27.2242 21.1659C27.2079 20.4451 27.3775 19.7281 27.7204 19.0838Z" fill="currentColor"/>
<path d="M29.3379 19.8598L25.8069 17.9805L25.8067 17.9807L29.3379 19.8598ZM29.0976 20.5028L25.1988 19.6086L24.2114 23.9137L28.593 24.4709L29.0976 20.5028ZM29.8165 20.5071L30.2721 24.4811L30.2724 24.4811L29.8165 20.5071ZM31.0866 20.0452L33.3045 23.374L33.3046 23.374L31.0866 20.0452ZM31.9765 19.0688L28.4455 17.1895L28.4454 17.1897L31.9765 19.0688ZM32.2169 18.4257L36.1157 19.32L37.103 15.0156L32.7222 14.4578L32.2169 18.4257ZM31.4979 18.4215L31.9534 22.3955L31.9536 22.3954L31.4979 18.4215ZM29.192 17.4732L26.9741 14.1444L26.9741 14.1444L29.192 17.4732ZM31.2851 16.7076L31.7407 20.6816L31.741 20.6815L31.2851 16.7076ZM33.512 16.9766L37.1788 18.575L38.8719 14.6912L34.8972 13.2241L33.512 16.9766ZM33.5119 16.9768L29.8452 15.3783L28.1507 19.2654L32.13 20.7305L33.5119 16.9768ZM34.0902 17.7627L30.0911 17.8451L30.0912 17.8534L34.0902 17.7627ZM33.594 19.8448L30.063 17.9654L30.063 17.9655L33.594 19.8448ZM32.1224 21.4554L34.3404 24.7842L34.3404 24.7841L32.1224 21.4554ZM30.0293 22.221L30.4848 26.195L30.4854 26.1949L30.0293 22.221ZM27.8024 21.952L24.1186 20.3933L22.4854 24.2532L26.4173 25.7045L27.8024 21.952ZM27.8025 21.9518L31.4863 23.5105L33.1209 19.6474L29.1845 18.1981L27.8025 21.9518ZM27.2242 21.1659L31.2234 21.0835L31.2232 21.0752L27.2242 21.1659ZM28.0098 15.5547C27.0665 16.1832 26.3177 17.0206 25.8069 17.9805L32.8689 21.7391C32.7616 21.9407 32.611 22.1021 32.4459 22.2121L28.0098 15.5547ZM25.8067 17.9807C25.5325 18.4962 25.3284 19.0436 25.1988 19.6086L32.9963 21.3971C32.9685 21.5182 32.9254 21.633 32.8691 21.7388L25.8067 17.9807ZM28.593 24.4709C29.1475 24.5414 29.7115 24.5454 30.2721 24.4811L29.3609 16.5332C29.4403 16.5241 29.521 16.5245 29.6021 16.5348L28.593 24.4709ZM30.2724 24.4811C31.3155 24.3614 32.3619 24.0021 33.3045 23.374L28.8686 16.7165C29.0338 16.6064 29.2069 16.5508 29.3607 16.5332L30.2724 24.4811ZM33.3046 23.374C34.2478 22.7455 34.9967 21.9081 35.5076 20.948L28.4454 17.1897C28.5528 16.9878 28.7035 16.8265 28.8686 16.7165L33.3046 23.374ZM35.5075 20.9481C35.7817 20.433 35.986 19.8855 36.1157 19.32L28.3182 17.5315C28.3461 17.4098 28.3894 17.2949 28.4455 17.1895L35.5075 20.9481ZM32.7222 14.4578C32.1663 14.387 31.602 14.3833 31.0423 14.4475L31.9536 22.3954C31.8751 22.4044 31.7942 22.4042 31.7117 22.3937L32.7222 14.4578ZM31.0425 14.4475C29.9988 14.5671 28.9524 14.9267 28.0101 15.5545L32.4456 22.2123C32.2808 22.322 32.1077 22.3778 31.9534 22.3955L31.0425 14.4475ZM31.2513 20.9633C31.2707 20.9268 31.3129 20.8666 31.41 20.8019L26.9741 14.1444C25.7796 14.9403 24.8333 15.9948 24.1894 17.2043L31.2513 20.9633ZM31.4099 20.802C31.5105 20.735 31.6219 20.6952 31.7407 20.6816L30.8295 12.7336C29.4928 12.8869 28.1658 13.3504 26.9741 14.1444L31.4099 20.802ZM31.741 20.6815C31.8657 20.6672 32.0017 20.6829 32.1269 20.7291L34.8972 13.2241C33.6056 12.7473 32.2088 12.5754 30.8292 12.7337L31.741 20.6815ZM29.8453 15.3781L29.8452 15.3783L37.1787 18.5753L37.1788 18.575L29.8453 15.3781ZM32.13 20.7305C31.0653 20.3385 30.1207 19.2829 30.0911 17.8451L38.0894 17.6802C38.0449 15.5229 36.6232 13.8598 34.8939 13.2231L32.13 20.7305ZM30.0912 17.8534C30.092 17.8866 30.0844 17.9253 30.063 17.9654L37.125 21.7241C37.7896 20.4756 38.1211 19.0804 38.0892 17.6719L30.0912 17.8534ZM30.063 17.9655C30.0438 18.0016 30.0016 18.0619 29.9043 18.1268L34.3404 24.7841C35.5346 23.9884 36.4812 22.9339 37.1251 21.7241L30.063 17.9655ZM29.9043 18.1267C29.8042 18.1935 29.6928 18.2334 29.5733 18.2471L30.4854 26.1949C31.8215 26.0416 33.1484 25.5784 34.3404 24.7842L29.9043 18.1267ZM29.5739 18.247C29.4486 18.2614 29.3124 18.2456 29.1876 18.1995L26.4173 25.7045C27.7092 26.1814 29.1058 26.353 30.4848 26.195L29.5739 18.247ZM31.4862 23.5107L31.4863 23.5105L24.1187 20.3931L24.1186 20.3933L31.4862 23.5107ZM29.1845 18.1981C30.2492 18.5901 31.1937 19.6456 31.2234 21.0835L23.2251 21.2484C23.2696 23.4058 24.6913 25.0688 26.4205 25.7055L29.1845 18.1981ZM31.2232 21.0752C31.2224 21.042 31.2301 21.0032 31.2515 20.963L24.1893 17.2046C23.5249 18.4531 23.1933 19.8482 23.2253 21.2567L31.2232 21.0752Z" fill="currentColor" mask="url(#path-24-inside-12_17_3)"/>
<mask id="path-26-inside-13_17_3" fill="currentColor">
<path d="M23.0919 34.3936C23.0919 33.9166 23.4985 33.5299 24 33.5299C24.5015 33.5299 24.9081 33.9166 24.9081 34.3936V39.683C24.9081 40.16 24.5015 40.5467 24 40.5467C23.4985 40.5467 23.0919 40.16 23.0919 39.683V34.3936Z"/>
</mask>
<path d="M23.0919 34.3936C23.0919 33.9166 23.4985 33.5299 24 33.5299C24.5015 33.5299 24.9081 33.9166 24.9081 34.3936V39.683C24.9081 40.16 24.5015 40.5467 24 40.5467C23.4985 40.5467 23.0919 40.16 23.0919 39.683V34.3936Z" fill="currentColor"/>
<path d="M27.0919 34.3936C27.0919 36.3122 25.5164 37.5299 24 37.5299V29.5299C21.4806 29.5299 19.0919 31.5209 19.0919 34.3936H27.0919ZM24 37.5299C22.4836 37.5299 20.9081 36.3122 20.9081 34.3936H28.9081C28.9081 31.521 26.5194 29.5299 24 29.5299V37.5299ZM20.9081 34.3936V39.683H28.9081V34.3936H20.9081ZM20.9081 39.683C20.9081 37.7644 22.4836 36.5467 24 36.5467V44.5467C26.5194 44.5467 28.9081 42.5556 28.9081 39.683H20.9081ZM24 36.5467C25.5164 36.5467 27.0919 37.7643 27.0919 39.683H19.0919C19.0919 42.5556 21.4806 44.5467 24 44.5467V36.5467ZM27.0919 39.683V34.3936H19.0919V39.683H27.0919Z" fill="currentColor" mask="url(#path-26-inside-13_17_3)"/>
<path d="M24 35.2765C23.7947 35.2765 23.5706 35.2249 23.3485 35.127C23.5537 35.111 23.772 35.1021 23.9993 35.1022C24.2265 35.1023 24.445 35.1113 24.6504 35.1275C24.4286 35.2251 24.205 35.2765 24 35.2765ZM25.6186 34.2783C25.6187 34.2783 25.6178 34.2812 25.6153 34.287C25.6172 34.2812 25.6184 34.2783 25.6186 34.2783ZM22.3815 34.2782C22.3816 34.2783 22.3829 34.2812 22.3847 34.287C22.3822 34.2811 22.3813 34.2782 22.3815 34.2782Z" fill="currentColor" stroke="currentColor" stroke-width="4"/>
<mask id="path-29-inside-14_17_3" fill="currentColor">
<path d="M21.3153 34.4711C21.3153 34.8161 21.6676 35.3234 22.2147 35.7506C22.705 36.1335 23.3354 36.4128 24 36.4128C24.6645 36.4128 25.295 36.1335 25.7853 35.7506C26.3324 35.3234 26.6847 34.8161 26.6847 34.4711C26.6847 34.3295 26.0881 34.1777 25.325 34.0599L25.3215 34.0594L25.3214 34.0599C24.9014 33.9951 24.4481 33.9626 23.9971 33.9626C23.546 33.9626 23.0928 33.9949 22.6732 34.0597C21.9108 34.1774 21.3153 34.3291 21.3153 34.4711H21.3153ZM21.0654 37.0799C20.1127 36.336 19.4991 35.2994 19.4991 34.4711C19.4991 33.2981 20.7635 32.6091 22.3824 32.3592C22.8894 32.281 23.4423 32.2419 23.9971 32.2419C24.5519 32.242 25.105 32.2812 25.6123 32.3595L25.6122 32.36C27.2338 32.6109 28.5008 33.3005 28.5008 34.4711C28.5008 35.2994 27.8873 36.336 26.9346 37.0799C26.1495 37.6929 25.118 38.1402 24 38.1402C22.882 38.1402 21.8505 37.6929 21.0654 37.0799H21.0654Z"/>
</mask>
<path d="M21.3153 34.4711C21.3153 34.8161 21.6676 35.3234 22.2147 35.7506C22.705 36.1335 23.3354 36.4128 24 36.4128C24.6645 36.4128 25.295 36.1335 25.7853 35.7506C26.3324 35.3234 26.6847 34.8161 26.6847 34.4711C26.6847 34.3295 26.0881 34.1777 25.325 34.0599L25.3215 34.0594L25.3214 34.0599C24.9014 33.9951 24.4481 33.9626 23.9971 33.9626C23.546 33.9626 23.0928 33.9949 22.6732 34.0597C21.9108 34.1774 21.3153 34.3291 21.3153 34.4711H21.3153ZM21.0654 37.0799C20.1127 36.336 19.4991 35.2994 19.4991 34.4711C19.4991 33.2981 20.7635 32.6091 22.3824 32.3592C22.8894 32.281 23.4423 32.2419 23.9971 32.2419C24.5519 32.242 25.105 32.2812 25.6123 32.3595L25.6122 32.36C27.2338 32.6109 28.5008 33.3005 28.5008 34.4711C28.5008 35.2994 27.8873 36.336 26.9346 37.0799C26.1495 37.6929 25.118 38.1402 24 38.1402C22.882 38.1402 21.8505 37.6929 21.0654 37.0799H21.0654Z" fill="currentColor"/>
<path d="M21.3153 34.4711H25.3153V30.4711H21.3153V34.4711ZM22.2147 35.7506L19.7529 38.9034L19.753 38.9034L22.2147 35.7506ZM25.7853 35.7506L28.247 38.9034L28.247 38.9034L25.7853 35.7506ZM25.325 34.0599L24.69 38.0092L24.7025 38.0112L24.715 38.0131L25.325 34.0599ZM25.3215 34.0594L25.9564 30.1101L22.0095 29.4755L21.3726 33.4221L25.3215 34.0594ZM25.3214 34.0599L24.7114 38.0131L28.6374 38.619L29.2703 34.6972L25.3214 34.0599ZM22.6732 34.0597L22.0633 30.1064L22.0629 30.1065L22.6732 34.0597ZM21.3153 34.4711H17.3153V38.4711H21.3153V34.4711ZM21.0654 37.0799L18.6036 40.2326L19.6887 41.0799H21.0654V37.0799ZM22.3824 32.3592L21.7723 28.406L21.7721 28.4061L22.3824 32.3592ZM23.9971 32.2419L23.9968 36.2419H23.9968L23.9971 32.2419ZM25.6123 32.3595L29.5607 32.9996L30.2057 29.0211L26.2224 28.4063L25.6123 32.3595ZM25.6122 32.36L21.6637 31.7199L21.0189 35.697L25.0006 36.313L25.6122 32.36ZM26.9346 37.0799L24.4728 33.9272L24.4728 33.9272L26.9346 37.0799ZM21.0654 37.0799L23.5272 33.9272L22.4421 33.0799H21.0654V37.0799ZM17.3153 34.4711C17.3153 35.8507 17.9409 36.8857 18.2837 37.375C18.7038 37.9747 19.2209 38.4879 19.7529 38.9034L24.6764 32.5979C24.6766 32.598 24.6883 32.607 24.7104 32.6297C24.7309 32.6508 24.7767 32.7004 24.836 32.7851C24.8912 32.8638 24.9915 33.0204 25.0868 33.2561C25.1761 33.4768 25.3153 33.9002 25.3153 34.4711H17.3153ZM19.753 38.9034C20.7575 39.6877 22.23 40.4128 24 40.4128V32.4128C24.2294 32.4128 24.3979 32.4607 24.4946 32.4983C24.5887 32.535 24.6447 32.5731 24.6764 32.5978L19.753 38.9034ZM24 40.4128C25.7699 40.4128 27.2425 39.6877 28.247 38.9034L23.3236 32.5978C23.3553 32.5731 23.4113 32.535 23.5054 32.4983C23.6021 32.4607 23.7706 32.4128 24 32.4128V40.4128ZM28.247 38.9034C28.779 38.488 29.2961 37.9748 29.7163 37.3751C30.0591 36.8857 30.6847 35.8507 30.6847 34.4711H22.6847C22.6847 33.9003 22.8238 33.4769 22.9131 33.2561C23.0085 33.0204 23.1088 32.8638 23.164 32.7851C23.2233 32.7004 23.2691 32.6508 23.2896 32.6297C23.3118 32.6069 23.3234 32.598 23.3235 32.5979L28.247 38.9034ZM30.6847 34.4711C30.6847 32.9753 29.8952 32.0014 29.4964 31.5996C29.0786 31.1788 28.6602 30.9394 28.4538 30.8299C28.0202 30.6 27.6097 30.4737 27.3973 30.4126C26.9135 30.2733 26.3811 30.1755 25.9349 30.1067L24.715 38.0131C24.8579 38.0352 24.9759 38.0562 25.0667 38.0746C25.1636 38.0942 25.1983 38.1044 25.1847 38.1005C25.1764 38.0981 25.1345 38.086 25.0688 38.0617C25.0109 38.0403 24.8773 37.9886 24.7053 37.8974C24.5667 37.8239 24.2009 37.6206 23.8187 37.2356C23.4555 36.8697 22.6847 35.9315 22.6847 34.4711H30.6847ZM25.9599 30.1106L25.9564 30.1101L24.6866 38.0087L24.69 38.0092L25.9599 30.1106ZM21.3726 33.4221L21.3725 33.4227L29.2703 34.6972L29.2704 34.6966L21.3726 33.4221ZM25.9315 30.1067C25.2908 30.0078 24.6324 29.9626 23.9971 29.9626V37.9626C24.2638 37.9626 24.512 37.9824 24.7114 38.0131L25.9315 30.1067ZM23.9971 29.9626C23.3628 29.9626 22.7045 30.0075 22.0633 30.1064L23.283 38.0129C23.4811 37.9823 23.7292 37.9626 23.9971 37.9626V29.9626ZM22.0629 30.1065C21.617 30.1753 21.0845 30.2732 20.6002 30.4128C20.3876 30.4741 19.9762 30.6009 19.5417 30.832C19.3347 30.9421 18.916 31.1825 18.4984 31.6047C18.0985 32.009 17.3153 32.9814 17.3153 34.4711H25.3153C25.3153 35.9253 24.5506 36.8619 24.1863 37.2303C23.8043 37.6166 23.4381 37.8208 23.2987 37.8949C23.1262 37.9867 22.9919 38.0388 22.9336 38.0604C22.8674 38.0849 22.8251 38.0972 22.8164 38.0997C22.8022 38.1038 22.8363 38.0937 22.9328 38.0742C23.0232 38.0559 23.1409 38.0348 23.2835 38.0128L22.0629 30.1065ZM21.3153 38.4711H21.3153V30.4711H21.3153V38.4711ZM23.5271 33.9272C23.4785 33.8892 23.4367 33.8492 23.4041 33.8127C23.3709 33.7754 23.3573 33.753 23.3581 33.7543C23.359 33.7559 23.3657 33.7671 23.3758 33.7892C23.3859 33.811 23.4013 33.8477 23.4181 33.8996C23.449 33.9961 23.4991 34.1917 23.4991 34.4711H15.4991C15.4991 36.9909 17.1117 39.0677 18.6036 40.2326L23.5271 33.9272ZM23.4991 34.4711C23.4991 34.9363 23.3631 35.3973 23.1275 35.7796C22.91 36.1326 22.6728 36.3161 22.5722 36.384C22.473 36.451 22.4459 36.4477 22.54 36.4156C22.628 36.3856 22.7778 36.3456 22.9927 36.3124L21.7721 28.4061C20.6462 28.5799 19.2855 28.9502 18.0952 29.754C16.8133 30.6196 15.4991 32.1939 15.4991 34.4711H23.4991ZM22.9924 36.3124C23.2745 36.2689 23.6217 36.2419 23.9968 36.2419L23.9974 28.2419C23.2629 28.2419 22.5043 28.2931 21.7723 28.406L22.9924 36.3124ZM23.9968 36.2419C24.3717 36.2419 24.7193 36.269 25.0022 36.3127L26.2224 28.4063C25.4907 28.2934 24.7322 28.242 23.9974 28.2419L23.9968 36.2419ZM21.6638 31.7193L21.6637 31.7199L29.5606 33.0002L29.5607 32.9996L21.6638 31.7193ZM25.0006 36.313C25.2166 36.3464 25.3677 36.3867 25.4571 36.4172C25.5527 36.4498 25.5271 36.4537 25.4292 36.3877C25.3301 36.321 25.093 36.1384 24.875 35.7857C24.6386 35.4033 24.5008 34.9403 24.5008 34.4711H32.5008C32.5008 32.1887 31.1791 30.6156 29.9001 29.7537C28.7103 28.9518 27.3503 28.5814 26.2238 28.4071L25.0006 36.313ZM24.5008 34.4711C24.5008 34.1917 24.5509 33.9961 24.5819 33.8997C24.5986 33.8477 24.6141 33.811 24.6242 33.7892C24.6343 33.7671 24.641 33.7559 24.6419 33.7543C24.6427 33.753 24.6291 33.7754 24.5959 33.8127C24.5633 33.8492 24.5215 33.8892 24.4728 33.9272L29.3964 40.2326C30.8882 39.0677 32.5008 36.991 32.5008 34.4711H24.5008ZM24.4728 33.9272C24.3724 34.0056 24.2657 34.0649 24.1709 34.1009C24.0797 34.1356 24.0231 34.1402 24 34.1402V42.1402C26.181 42.1402 28.0558 41.2794 29.3964 40.2326L24.4728 33.9272ZM24 34.1402C23.9769 34.1402 23.9203 34.1356 23.829 34.1009C23.7343 34.0649 23.6276 34.0056 23.5272 33.9272L18.6036 40.2326C19.9442 41.2794 21.819 42.1402 24 42.1402V34.1402ZM21.0654 33.0799H21.0654V41.0799H21.0654V33.0799Z" fill="currentColor" mask="url(#path-29-inside-14_17_3)"/>
<path d="M8.90866 12.7523C9.38271 12.5995 9.63681 12.11 9.4762 11.6591C9.32131 11.2243 8.83716 10.984 8.37767 11.1045C8.37669 11.1048 8.37571 11.105 8.37472 11.1053C8.35875 11.1095 8.3428 11.1142 8.3269 11.1193C8.11638 11.1876 7.90466 11.2586 7.69188 11.3325C7.52314 11.6059 7.46014 11.9596 7.59216 12.3303L8.90866 12.7523ZM8.90866 12.7523C8.89286 12.7574 8.87705 12.7625 8.86124 12.7677L8.90866 12.7523ZM8.85837 12.7686C8.6416 12.8393 8.42401 12.9129 8.20577 12.9892L8.85837 12.7686Z" fill="currentColor" stroke="currentColor" stroke-width="4"/>
<mask id="path-32-inside-15_17_3" fill="currentColor">
<path d="M8.76301 11.026C9.86471 10.7915 13.478 9.89176 13.478 8.1759C13.478 6.35339 7.8973 3.13372 5.85021 2.01393C5.19097 3.09877 4.07643 5.29996 4.66928 6.9916C5.37066 8.99301 7.91157 10.5503 8.76302 11.026H8.76301ZM15.2941 8.1759C15.2941 11.6408 8.80658 12.7792 8.78799 12.7826L8.78763 12.7807C8.59158 12.8165 8.3819 12.7911 8.19207 12.6949C8.18009 12.6888 4.02969 10.6053 2.95243 7.5314C1.84689 4.37676 4.7877 0.383078 4.7961 0.371515L4.79641 0.371727C5.05579 0.0134572 5.56327 -0.107681 5.97377 0.104969C6.0005 0.118868 15.2941 4.91805 15.2941 8.1759H15.2941Z"/>
</mask>
<path d="M8.76301 11.026C9.86471 10.7915 13.478 9.89176 13.478 8.1759C13.478 6.35339 7.8973 3.13372 5.85021 2.01393C5.19097 3.09877 4.07643 5.29996 4.66928 6.9916C5.37066 8.99301 7.91157 10.5503 8.76302 11.026H8.76301ZM15.2941 8.1759C15.2941 11.6408 8.80658 12.7792 8.78799 12.7826L8.78763 12.7807C8.59158 12.8165 8.3819 12.7911 8.19207 12.6949C8.18009 12.6888 4.02969 10.6053 2.95243 7.5314C1.84689 4.37676 4.7877 0.383078 4.7961 0.371515L4.79641 0.371727C5.05579 0.0134572 5.56327 -0.107681 5.97377 0.104969C6.0005 0.118868 15.2941 4.91805 15.2941 8.1759H15.2941Z" fill="currentColor"/>
<path d="M8.76301 11.026L7.93026 7.1136L8.76301 15.026V11.026ZM5.85021 2.01393L7.76984 -1.49534L4.41673 -3.32955L2.43189 -0.0633404L5.85021 2.01393ZM4.66928 6.9916L8.44419 5.6687L8.44417 5.66866L4.66928 6.9916ZM8.76302 11.026V15.026H24.1259L10.7137 7.53385L8.76302 11.026ZM15.2941 8.1759H19.2941V4.1759H15.2941V8.1759ZM8.78799 12.7826L4.85894 13.5326L5.60155 17.4227L9.49884 16.7189L8.78799 12.7826ZM8.78763 12.7807L12.7167 12.0307L11.9727 8.13318L8.0693 8.84574L8.78763 12.7807ZM8.19207 12.6949L10.0013 9.12737L9.99222 9.12282L8.19207 12.6949ZM2.95243 7.5314L-0.822468 8.85432L-0.822464 8.85433L2.95243 7.5314ZM4.7961 0.371515L7.04393 -2.93715L3.8379 -5.11526L1.55988 -1.97942L4.7961 0.371515ZM4.79641 0.371727L2.54858 3.68039L5.75985 5.86206L8.03646 2.71738L4.79641 0.371727ZM5.97377 0.104969L7.81946 -3.44376L7.81365 -3.44677L5.97377 0.104969ZM15.2941 8.1759H11.2941V12.1759H15.2941V8.1759ZM9.59575 14.9383C10.2299 14.8033 11.741 14.4498 13.1758 13.8038C13.8808 13.4864 14.8058 12.9947 15.6126 12.2484C16.425 11.4968 17.478 10.1321 17.478 8.1759H9.478C9.478 7.07765 10.0793 6.46889 10.1799 6.37589C10.2747 6.28817 10.2276 6.35775 9.89145 6.50908C9.59423 6.6429 9.22726 6.77125 8.84347 6.8833C8.46877 6.9927 8.13646 7.06971 7.93026 7.1136L9.59575 14.9383ZM17.478 8.1759C17.478 6.95813 17.028 5.99053 16.6767 5.39681C16.3069 4.77181 15.8563 4.24283 15.4531 3.82488C14.6474 2.98942 13.6562 2.21532 12.748 1.57028C10.9046 0.260914 8.83543 -0.912451 7.76984 -1.49534L3.93058 5.52321C4.91208 6.0601 6.65684 7.05647 8.11549 8.09251C8.8584 8.62018 9.39034 9.0627 9.69492 9.3785C9.84699 9.53618 9.84836 9.5665 9.79173 9.47078C9.7536 9.40635 9.478 8.93805 9.478 8.1759H17.478ZM2.43189 -0.0633404C2.01866 0.616666 1.40121 1.74043 0.980244 3.05696C0.585557 4.29131 0.176866 6.26715 0.894382 8.31453L8.44417 5.66866C8.51526 5.87151 8.49792 5.9806 8.50174 5.9246C8.50572 5.86606 8.5266 5.72359 8.60018 5.49347C8.75308 5.01529 9.02252 4.49604 9.26854 4.09121L2.43189 -0.0633404ZM0.89437 8.3145C1.59868 10.3243 3.06107 11.779 4.08209 12.6395C5.18021 13.565 6.26873 14.2144 6.81232 14.5181L10.7137 7.53385C10.4059 7.36188 9.7982 6.99477 9.23766 6.52235C8.96206 6.29008 8.74853 6.07446 8.60071 5.89086C8.44815 5.70139 8.42855 5.62408 8.44419 5.6687L0.89437 8.3145ZM8.76302 7.02595H8.76301V15.026H8.76302V7.02595ZM11.2941 8.1759C11.2941 7.66113 11.5716 7.41113 11.486 7.49472C11.3561 7.62152 11.0245 7.85632 10.4305 8.11896C9.87257 8.36565 9.27497 8.5534 8.79091 8.68126C8.55604 8.7433 8.36421 8.78697 8.23845 8.8138C8.17595 8.82713 8.13082 8.83607 8.10605 8.84085C8.08435 8.84504 8.08031 8.84568 8.07714 8.84626L9.49884 16.7189C9.49799 16.7191 9.54682 16.7104 9.62219 16.6959C9.69449 16.6819 9.79066 16.6627 9.90732 16.6378C10.1399 16.5882 10.458 16.5153 10.8339 16.416C11.5715 16.2212 12.5993 15.9071 13.6656 15.4357C14.6958 14.9802 15.9873 14.2805 17.0744 13.2192C18.2057 12.1148 19.2941 10.4231 19.2941 8.1759H11.2941ZM12.717 12.0325L12.7167 12.0307L4.85858 13.5308L4.85894 13.5326L12.717 12.0325ZM8.0693 8.84574C8.69344 8.73181 9.37602 8.81031 10.0013 9.12739L6.38288 16.2623C7.38779 16.7719 8.48973 16.9012 9.50596 16.7157L8.0693 8.84574ZM9.99222 9.12282C9.9897 9.12155 9.99355 9.12349 9.99617 9.12482C9.99848 9.12599 9.99992 9.12672 10.0005 9.12702C10.0017 9.12762 9.99927 9.12639 9.9935 9.12338C9.98193 9.11734 9.95696 9.10419 9.92024 9.0842C9.8465 9.04406 9.72731 8.97739 9.57556 8.88647C9.26746 8.70189 8.84988 8.43212 8.41563 8.09697C7.4222 7.33027 6.87509 6.63008 6.72733 6.20848L-0.822464 8.85433C0.107037 11.5066 2.17375 13.3851 3.52783 14.4302C4.26733 15.0009 4.95693 15.4453 5.46406 15.7491C5.71993 15.9024 5.93537 16.0235 6.0951 16.1105C6.17512 16.154 6.24161 16.1893 6.29267 16.2159C6.31822 16.2292 6.33993 16.2404 6.35757 16.2495C6.3664 16.254 6.37416 16.2579 6.38083 16.2613C6.38782 16.2648 6.39406 16.268 6.39192 16.2669L9.99222 9.12282ZM6.72734 6.20848C6.72233 6.19418 6.67525 6.04002 6.73033 5.66559C6.78552 5.29045 6.92298 4.83836 7.13259 4.3497C7.33765 3.87167 7.57433 3.445 7.76326 3.13548C7.85568 2.98407 7.93148 2.86915 7.97871 2.79957C8.00218 2.76499 8.01818 2.74222 8.02516 2.73238C8.03046 2.7249 8.02686 2.72996 8.03232 2.72245L1.55988 -1.97942C1.56429 -1.98548 1.53674 -1.94787 1.49858 -1.89404C1.46209 -1.84257 1.41513 -1.77527 1.35954 -1.69338C1.24865 -1.53002 1.10197 -1.30639 0.934776 -1.03247C0.604484 -0.491344 0.173483 0.27974 -0.219519 1.1959C-0.923855 2.83785 -1.88744 5.81545 -0.822468 8.85432L6.72734 6.20848ZM2.54827 3.68018L2.54858 3.68039L7.04425 -2.93694L7.04393 -2.93715L2.54827 3.68018ZM8.03646 2.71738C7.1065 4.00194 5.43899 4.33278 4.1339 3.65671L7.81365 -3.44677C5.68755 -4.54814 3.00508 -3.97503 1.55637 -1.97393L8.03646 2.71738ZM4.12809 3.65369C4.13203 3.65574 4.15871 3.6695 4.21545 3.69945C4.27359 3.73015 4.36259 3.77749 4.47801 3.83996C4.70919 3.96508 5.04443 4.14983 5.44855 4.38203C6.26381 4.85046 7.32644 5.49317 8.36911 6.21409C9.43951 6.95418 10.3529 7.684 10.9556 8.31209C11.7564 9.14647 11.2941 9.0504 11.2941 8.1759H19.2941C19.2941 5.67248 17.6701 3.75481 16.7275 2.77265C15.5869 1.58418 14.1752 0.502489 12.9188 -0.366179C11.6348 -1.25402 10.369 -2.01733 9.43415 -2.55447C8.96324 -2.82505 8.56803 -3.04297 8.28585 -3.19569C8.14459 -3.27215 8.03118 -3.33252 7.95025 -3.37524C7.86792 -3.4187 7.81886 -3.44407 7.81946 -3.44376L4.12809 3.65369ZM15.2941 12.1759H15.2941V4.1759H15.2941V12.1759Z" fill="currentColor" mask="url(#path-32-inside-15_17_3)"/>
<path d="M8.90866 12.7523C9.38271 12.5995 9.63681 12.11 9.4762 11.6591C9.32131 11.2243 8.83716 10.984 8.37767 11.1045C8.37669 11.1048 8.37571 11.105 8.37472 11.1053C8.35875 11.1095 8.3428 11.1142 8.3269 11.1193C8.11638 11.1876 7.90466 11.2586 7.69188 11.3325C7.52314 11.6059 7.46014 11.9596 7.59216 12.3303L8.90866 12.7523ZM8.90866 12.7523C8.89286 12.7574 8.87705 12.7625 8.86124 12.7677L8.90866 12.7523ZM8.85837 12.7686C8.6416 12.8393 8.42401 12.9129 8.20577 12.9892L8.85837 12.7686Z" fill="currentColor" stroke="currentColor" stroke-width="4"/>
<mask id="path-35-inside-16_17_3" fill="currentColor">
<path d="M47.5723 14.7308C47.9973 14.9823 48.1276 15.514 47.8631 15.9183C47.5986 16.3226 47.0396 16.4465 46.6145 16.195C45.3664 15.4568 44.1024 14.796 42.8536 14.2248C41.594 13.6487 40.3291 13.1536 39.0914 12.7523C38.6173 12.5995 38.3632 12.1101 38.5238 11.6592C38.6844 11.2083 39.1991 10.9666 39.6731 11.1194C40.9598 11.5365 42.2915 12.0589 43.6339 12.6729C44.9673 13.2827 46.2913 13.9732 47.5723 14.7308Z"/>
</mask>
<path d="M47.5723 14.7308C47.9973 14.9823 48.1276 15.514 47.8631 15.9183C47.5986 16.3226 47.0396 16.4465 46.6145 16.195C45.3664 15.4568 44.1024 14.796 42.8536 14.2248C41.594 13.6487 40.3291 13.1536 39.0914 12.7523C38.6173 12.5995 38.3632 12.1101 38.5238 11.6592C38.6844 11.2083 39.1991 10.9666 39.6731 11.1194C40.9598 11.5365 42.2915 12.0589 43.6339 12.6729C44.9673 13.2827 46.2913 13.9732 47.5723 14.7308Z" fill="currentColor"/>
<path d="M47.5723 14.7308L49.6093 11.2883L49.6084 11.2878L47.5723 14.7308ZM47.8631 15.9183L44.5157 13.7287L44.5157 13.7287L47.8631 15.9183ZM46.6145 16.195L48.6516 12.7525L48.6507 12.752L46.6145 16.195ZM42.8536 14.2248L44.5174 10.5873L44.5173 10.5872L42.8536 14.2248ZM39.0914 12.7523L40.3249 8.94725L40.3182 8.94509L39.0914 12.7523ZM39.6731 11.1194L40.9066 7.31429L40.9 7.31216L39.6731 11.1194ZM43.6339 12.6729L41.9702 16.3105L41.9703 16.3105L43.6339 12.6729ZM45.5352 18.1732C44.0757 17.3095 43.4835 15.3065 44.5157 13.7287L51.2105 18.108C52.7716 15.7215 51.919 12.6551 49.6093 11.2883L45.5352 18.1732ZM44.5157 13.7287C45.4647 12.2778 47.3031 11.9545 48.6516 12.7525L44.5774 19.6374C46.7761 20.9385 49.7326 20.3675 51.2105 18.108L44.5157 13.7287ZM48.6507 12.752C47.2857 11.9447 45.8975 11.2185 44.5174 10.5873L41.1898 17.8624C42.3073 18.3735 43.4471 18.9689 44.5783 19.6379L48.6507 12.752ZM44.5173 10.5872C43.1268 9.95127 41.7184 9.39901 40.3249 8.94726L37.8578 16.5573C38.9397 16.9081 40.0611 17.3462 41.1899 17.8624L44.5173 10.5872ZM40.3182 8.94509C41.8418 9.43606 42.9406 11.1803 42.2919 13.0014L34.7557 10.3169C33.7858 13.0398 35.3928 15.763 37.8645 16.5595L40.3182 8.94509ZM42.2919 13.0014C41.6794 14.7209 39.8915 15.3923 38.4463 14.9266L40.9 7.31216C38.5066 6.5409 35.6895 7.69562 34.7557 10.3169L42.2919 13.0014ZM38.4396 14.9244C39.567 15.2899 40.755 15.7547 41.9702 16.3105L45.2977 9.03533C43.8279 8.3631 42.3526 7.78305 40.9066 7.3143L38.4396 14.9244ZM41.9703 16.3105C43.1771 16.8625 44.3768 17.4881 45.5361 18.1737L49.6084 11.2878C48.2058 10.4583 46.7574 9.70296 45.2976 9.03531L41.9703 16.3105Z" fill="currentColor" mask="url(#path-35-inside-16_17_3)"/>
<mask id="path-37-inside-17_17_3" fill="currentColor">
<path d="M39.212 12.7826C39.1934 12.7792 32.7058 11.6408 32.7058 8.1759C32.7058 4.91805 41.9995 0.118875 42.0262 0.104969C42.4367 -0.107681 42.9442 0.013457 43.2035 0.371728L43.2038 0.371516C43.2123 0.383077 46.1531 4.37676 45.0475 7.5314C43.9703 10.6053 39.8199 12.6888 39.8079 12.6949C39.618 12.7911 39.4084 12.8165 39.2123 12.7807L39.212 12.7826H39.212ZM34.5219 8.1759C34.5219 9.89176 38.1352 10.7915 39.2369 11.026C40.0884 10.5503 42.6293 8.99301 43.3307 6.99159C43.9235 5.29996 42.809 3.09877 42.1498 2.01393C40.1027 3.13371 34.522 6.35339 34.522 8.1759H34.5219Z"/>
</mask>
<path d="M39.212 12.7826C39.1934 12.7792 32.7058 11.6408 32.7058 8.1759C32.7058 4.91805 41.9995 0.118875 42.0262 0.104969C42.4367 -0.107681 42.9442 0.013457 43.2035 0.371728L43.2038 0.371516C43.2123 0.383077 46.1531 4.37676 45.0475 7.5314C43.9703 10.6053 39.8199 12.6888 39.8079 12.6949C39.618 12.7911 39.4084 12.8165 39.2123 12.7807L39.212 12.7826H39.212ZM34.5219 8.1759C34.5219 9.89176 38.1352 10.7915 39.2369 11.026C40.0884 10.5503 42.6293 8.99301 43.3307 6.99159C43.9235 5.29996 42.809 3.09877 42.1498 2.01393C40.1027 3.13371 34.522 6.35339 34.522 8.1759H34.5219Z" fill="currentColor"/>
<path d="M39.212 12.7826V16.7826L39.923 8.84628L39.212 12.7826ZM42.0262 0.104969L40.1863 -3.44678L40.1796 -3.4433L42.0262 0.104969ZM43.2035 0.371728L39.9635 2.71735L42.2355 5.85577L45.4447 3.68489L43.2035 0.371728ZM43.2038 0.371516L46.4397 -1.97993L44.1661 -5.10862L40.9627 -2.94165L43.2038 0.371516ZM45.0475 7.5314L48.8224 8.85434L48.8224 8.85433L45.0475 7.5314ZM39.8079 12.6949L38.0077 9.12282L37.9987 9.12738L39.8079 12.6949ZM39.2123 12.7807L39.9306 8.84574L36.0278 8.13327L35.2834 12.0302L39.2123 12.7807ZM39.212 12.7826L35.283 12.032L34.3755 16.7826H39.212V12.7826ZM34.5219 8.1759V4.1759H30.5219V8.1759H34.5219ZM39.2369 11.026L38.4042 14.9383L39.8749 15.2513L41.1877 14.5181L39.2369 11.026ZM43.3307 6.99159L39.5558 5.66867L39.5558 5.66868L43.3307 6.99159ZM42.1498 2.01393L45.5681 -0.0633323L43.5833 -3.32954L40.2301 -1.49535L42.1498 2.01393ZM34.522 8.1759V12.1759H38.522V8.1759H34.522ZM39.923 8.84628C39.9196 8.84567 39.9156 8.84504 39.8939 8.84085C39.8691 8.83607 39.824 8.82713 39.7615 8.8138C39.6357 8.78697 39.4439 8.74329 39.209 8.68126C38.725 8.5534 38.1274 8.36565 37.5694 8.11895C36.9755 7.85632 36.6439 7.62152 36.514 7.49472C36.4283 7.41113 36.7058 7.66113 36.7058 8.1759H28.7058C28.7058 10.4231 29.7942 12.1147 30.9256 13.2192C32.0127 14.2805 33.3042 14.9802 34.3344 15.4357C35.4007 15.9071 36.4284 16.2212 37.166 16.416C37.542 16.5153 37.86 16.5882 38.0926 16.6378C38.2093 16.6627 38.3055 16.6819 38.3778 16.6959C38.4531 16.7104 38.502 16.7191 38.501 16.7189L39.923 8.84628ZM36.7058 8.1759C36.7058 9.0504 36.2435 9.14647 37.0443 8.31209C37.6471 7.684 38.5604 6.95419 39.6308 6.21409C40.6735 5.49317 41.7361 4.85046 42.5514 4.38203C42.9555 4.14983 43.2908 3.96508 43.5219 3.83996C43.6374 3.77749 43.7264 3.73015 43.7845 3.69945C43.8414 3.66942 43.8676 3.65593 43.8727 3.65324L40.1796 -3.4433C40.1814 -3.44425 40.1319 -3.41862 40.0497 -3.37523C39.9688 -3.33251 39.8554 -3.27214 39.7141 -3.19568C39.4319 -3.04296 39.0367 -2.82504 38.5658 -2.55446C37.631 -2.01733 36.3652 -1.25402 35.0811 -0.366177C33.8248 0.50249 32.413 1.58418 31.2724 2.77265C30.3298 3.75481 28.7058 5.67248 28.7058 8.1759H36.7058ZM43.866 3.65672C42.561 4.33276 40.8935 4.00197 39.9635 2.71735L46.4436 -1.9739C44.9949 -3.97505 42.3124 -4.54812 40.1863 -3.44678L43.866 3.65672ZM45.4447 3.68489L45.445 3.68468L40.9627 -2.94165L40.9623 -2.94144L45.4447 3.68489ZM39.968 2.72296C39.9729 2.72974 39.9696 2.72501 39.9748 2.73239C39.9818 2.74223 39.9978 2.765 40.0212 2.79958C40.0685 2.86915 40.1443 2.98407 40.2367 3.13548C40.4256 3.445 40.6623 3.87167 40.8674 4.3497C41.077 4.83836 41.2144 5.29045 41.2696 5.66559C41.3247 6.04002 41.2776 6.19418 41.2726 6.20848L48.8224 8.85433C49.8874 5.81545 48.9238 2.83785 48.2195 1.1959C47.8265 0.279739 47.3955 -0.491346 47.0652 -1.03247C46.898 -1.30639 46.7513 -1.53002 46.6404 -1.69339C46.5848 -1.77528 46.5379 -1.84258 46.5014 -1.89405C46.4631 -1.94797 46.4358 -1.98527 46.4397 -1.97993L39.968 2.72296ZM41.2726 6.20847C41.1249 6.63007 40.5777 7.33027 39.5843 8.09697C39.1501 8.43212 38.7325 8.70189 38.4244 8.88648C38.2726 8.97739 38.1534 9.04406 38.0797 9.08421C38.043 9.1042 38.018 9.11735 38.0064 9.12339C38.0007 9.1264 37.9983 9.12762 37.9994 9.12703C38 9.12672 38.0015 9.12599 38.0038 9.12482C38.0064 9.12349 38.0102 9.12155 38.0077 9.12283L41.6081 16.2669C41.6059 16.268 41.6121 16.2648 41.6191 16.2613C41.6258 16.2579 41.6336 16.254 41.6424 16.2494C41.66 16.2404 41.6817 16.2292 41.7073 16.2159C41.7584 16.1893 41.8248 16.154 41.9049 16.1105C42.0646 16.0235 42.28 15.9024 42.5359 15.7491C43.043 15.4453 43.7326 15.0009 44.4721 14.4302C45.8262 13.3851 47.8929 11.5066 48.8224 8.85434L41.2726 6.20847ZM37.9987 9.12738C38.6239 8.81031 39.3065 8.7318 39.9306 8.84574L38.494 16.7157C39.5102 16.9012 40.6122 16.7719 41.6171 16.2623L37.9987 9.12738ZM35.2834 12.0302L35.283 12.032L43.1409 13.5331L43.1413 13.5313L35.2834 12.0302ZM39.212 16.7826H39.212V8.78258H39.212V16.7826ZM30.5219 8.1759C30.5219 10.1321 31.575 11.4968 32.3874 12.2484C33.1941 12.9947 34.1192 13.4864 34.8241 13.8038C36.259 14.4498 37.77 14.8033 38.4042 14.9383L40.0697 7.11359C39.8635 7.06971 39.5312 6.9927 39.1565 6.8833C38.7727 6.77125 38.4057 6.64291 38.1085 6.50909C37.7724 6.35775 37.7253 6.28817 37.8201 6.37589C37.9206 6.46889 38.5219 7.07765 38.5219 8.1759H30.5219ZM41.1877 14.5181C41.7312 14.2144 42.8198 13.565 43.9179 12.6395C44.9389 11.779 46.4013 10.3243 47.1056 8.31451L39.5558 5.66868C39.5714 5.62407 39.5518 5.70138 39.3993 5.89086C39.2514 6.07446 39.0379 6.29008 38.7623 6.52235C38.2018 6.99477 37.5941 7.36188 37.2862 7.53386L41.1877 14.5181ZM47.1056 8.31452C47.8231 6.26715 47.4144 4.29131 47.0197 3.05697C46.5988 1.74043 45.9813 0.616675 45.5681 -0.0633323L38.7314 4.0912C38.9774 4.49603 39.2469 5.01529 39.3998 5.49346C39.4734 5.72359 39.4942 5.86606 39.4982 5.92461C39.502 5.98061 39.4847 5.87152 39.5558 5.66867L47.1056 8.31452ZM40.2301 -1.49535C39.1645 -0.912457 37.0954 0.260908 35.2519 1.57028C34.3438 2.21532 33.3526 2.98942 32.5468 3.82488C32.1437 4.24283 31.6931 4.7718 31.3233 5.39681C30.972 5.99053 30.522 6.95813 30.522 8.1759H38.522C38.522 8.93805 38.2464 9.40635 38.2082 9.47078C38.1516 9.5665 38.153 9.53618 38.305 9.3785C38.6096 9.0627 39.1416 8.62018 39.8845 8.0925C41.3431 7.05646 43.0879 6.0601 44.0694 5.52322L40.2301 -1.49535ZM34.522 4.1759H34.5219V12.1759H34.522V4.1759Z" fill="currentColor" mask="url(#path-37-inside-17_17_3)"/>
<mask id="path-39-inside-18_17_3" fill="currentColor">
<path d="M33.403 6.40778C33.6988 6.02397 34.2658 5.94091 34.6693 6.22225C35.0728 6.50359 35.1602 7.04289 34.8644 7.4267C33.8736 8.71059 32.3216 9.78902 30.4867 10.6125C28.5709 11.4725 26.3338 12.0633 24.11 12.3225C23.6124 12.3802 23.1598 12.0434 23.0991 11.5701C23.0383 11.0969 23.3925 10.6664 23.89 10.6086C25.9339 10.3704 27.9772 9.8331 29.7134 9.05382C31.2887 8.34684 32.5996 7.44881 33.403 6.40778Z"/>
</mask>
<path d="M33.403 6.40778C33.6988 6.02397 34.2658 5.94091 34.6693 6.22225C35.0728 6.50359 35.1602 7.04289 34.8644 7.4267C33.8736 8.71059 32.3216 9.78902 30.4867 10.6125C28.5709 11.4725 26.3338 12.0633 24.11 12.3225C23.6124 12.3802 23.1598 12.0434 23.0991 11.5701C23.0383 11.0969 23.3925 10.6664 23.89 10.6086C25.9339 10.3704 27.9772 9.8331 29.7134 9.05382C31.2887 8.34684 32.5996 7.44881 33.403 6.40778Z" fill="currentColor"/>
<path d="M33.403 6.40778L36.5697 8.85153L36.5713 8.84948L33.403 6.40778ZM34.8644 7.4267L38.0311 9.87047L38.0327 9.8684L34.8644 7.4267ZM30.4867 10.6125L28.8488 6.96326L28.8488 6.96327L30.4867 10.6125ZM24.11 12.3225L24.5713 16.2958L24.5731 16.2956L24.11 12.3225ZM23.0991 11.5701L19.1316 12.0793L19.1316 12.0793L23.0991 11.5701ZM23.89 10.6086L24.3513 14.5819L24.3532 14.5817L23.89 10.6086ZM29.7134 9.05382L28.0756 5.40451L28.0755 5.40455L29.7134 9.05382ZM36.5713 8.84948C35.5315 10.1986 33.6856 10.4126 32.3817 9.50352L36.9569 2.94098C34.8459 1.46921 31.866 1.84931 30.2347 3.96609L36.5713 8.84948ZM32.3817 9.50352C30.9616 8.51345 30.5606 6.45836 31.6961 4.98501L38.0327 9.8684C39.7597 7.62741 39.1841 4.49373 36.9569 2.94098L32.3817 9.50352ZM31.6977 4.98293C31.2449 5.56962 30.3241 6.30114 28.8488 6.96326L32.1246 14.2618C34.3191 13.2769 36.5022 11.8516 38.0311 9.87047L31.6977 4.98293ZM28.8488 6.96327C27.3439 7.63875 25.5086 8.13238 23.6469 8.34936L24.5731 16.2956C27.159 15.9942 29.7979 15.3062 32.1247 14.2618L28.8488 6.96327ZM23.6487 8.34915C25.1458 8.17535 26.8258 9.18524 27.0665 11.061L19.1316 12.0793C19.4938 14.9015 22.0791 16.5851 24.5713 16.2958L23.6487 8.34915ZM27.0665 11.061C27.3128 12.9804 25.8793 14.4045 24.3513 14.5819L23.4288 6.63528C20.9057 6.9282 18.7638 9.21336 19.1316 12.0793L27.0665 11.061ZM24.3532 14.5817C26.753 14.302 29.1992 13.6691 31.3514 12.7031L28.0755 5.40455C26.7553 5.99712 25.1149 6.43875 23.4269 6.6355L24.3532 14.5817ZM31.3513 12.7031C33.2451 11.8532 35.2096 10.614 36.5697 8.85153L30.2363 3.96404C29.9897 4.2836 29.3322 4.84052 28.0756 5.40451L31.3513 12.7031Z" fill="currentColor" mask="url(#path-39-inside-18_17_3)"/>
<mask id="path-41-inside-19_17_3" fill="currentColor">
<path d="M13.1356 7.4267C12.8398 7.04288 12.9271 6.50359 13.3307 6.22225C13.7342 5.94091 14.3012 6.02397 14.597 6.40778C15.4004 7.4488 16.7113 8.34684 18.2865 9.05382C20.0228 9.8331 22.0661 10.3704 24.1099 10.6086C24.6075 10.6664 24.9616 11.0969 24.9009 11.5701C24.8402 12.0434 24.3875 12.3802 23.89 12.3225C21.6662 12.0633 19.4291 11.4725 17.5132 10.6125C15.6784 9.78902 14.1264 8.7106 13.1356 7.4267Z"/>
</mask>
<path d="M13.1356 7.4267C12.8398 7.04288 12.9271 6.50359 13.3307 6.22225C13.7342 5.94091 14.3012 6.02397 14.597 6.40778C15.4004 7.4488 16.7113 8.34684 18.2865 9.05382C20.0228 9.8331 22.0661 10.3704 24.1099 10.6086C24.6075 10.6664 24.9616 11.0969 24.9009 11.5701C24.8402 12.0434 24.3875 12.3802 23.89 12.3225C21.6662 12.0633 19.4291 11.4725 17.5132 10.6125C15.6784 9.78902 14.1264 8.7106 13.1356 7.4267Z" fill="currentColor"/>
<path d="M13.3307 6.22225L11.043 2.94098L11.043 2.94098L13.3307 6.22225ZM14.597 6.40778L11.4287 8.84948L11.4303 8.85155L14.597 6.40778ZM18.2865 9.05382L19.9244 5.40454L19.9244 5.40452L18.2865 9.05382ZM24.1099 10.6086L23.6468 14.5817L23.6487 14.5819L24.1099 10.6086ZM24.9009 11.5701L28.8684 12.0793V12.0793L24.9009 11.5701ZM23.89 12.3225L23.4269 16.2956L23.4287 16.2958L23.89 12.3225ZM17.5132 10.6125L19.1512 6.96327L19.1511 6.96325L17.5132 10.6125ZM16.3039 4.985C17.4394 6.45835 17.0384 8.51344 15.6183 9.50352L11.043 2.94098C8.81584 4.49374 8.24026 7.62742 9.96731 9.8684L16.3039 4.985ZM15.6183 9.50352C14.3144 10.4126 12.4685 10.1986 11.4287 8.84948L17.7653 3.96608C16.134 1.84931 13.1541 1.46922 11.043 2.94098L15.6183 9.50352ZM11.4303 8.85155C12.7904 10.614 14.7549 11.8531 16.6487 12.7031L19.9244 5.40452C18.6678 4.84052 18.0103 4.28359 17.7637 3.96401L11.4303 8.85155ZM16.6486 12.7031C18.8008 13.6691 21.247 14.302 23.6468 14.5817L24.573 6.6355C22.8851 6.43875 21.2447 5.99712 19.9244 5.40454L16.6486 12.7031ZM23.6487 14.5819C22.1207 14.4045 20.6871 12.9804 20.9334 11.061L28.8684 12.0793C29.2362 9.21336 27.0943 6.9282 24.5712 6.63528L23.6487 14.5819ZM20.9334 11.061C21.1742 9.18523 22.8542 8.17535 24.3512 8.34915L23.4287 16.2958C25.9209 16.5851 28.5062 14.9015 28.8684 12.0793L20.9334 11.061ZM24.3531 8.34936C22.4914 8.13238 20.6561 7.63875 19.1512 6.96327L15.8753 14.2618C18.2021 15.3062 20.841 15.9942 23.4269 16.2956L24.3531 8.34936ZM19.1511 6.96325C17.6759 6.30114 16.7551 5.56963 16.3023 4.98295L9.96889 9.87045C11.4977 11.8516 13.6809 13.2769 15.8754 14.2618L19.1511 6.96325Z" fill="currentColor" mask="url(#path-41-inside-19_17_3)"/>
</svg>
