<svg width="62" height="61" viewBox="0 0 62 61" fill="none" xmlns="http://www.w3.org/2000/svg">
<path d="M60.6498 34.0407C61.2826 33.0035 62 31.8281 62 30.5C62 29.1719 61.2826 27.9965 60.6498 26.9593C60.2022 26.2257 59.7795 25.5329 59.6508 24.8925C59.5144 24.2143 59.6379 23.393 59.7687 22.5234C59.9546 21.288 60.1469 20.0106 59.6471 18.8249C59.1375 17.6155 58.0714 16.8399 57.0405 16.0901C56.3333 15.5755 55.6651 15.0895 55.2872 14.5342C54.9034 13.9701 54.6994 13.171 54.4835 12.3249C54.1729 11.108 53.8517 9.84971 52.9204 8.93328C51.9889 8.01685 50.7099 7.70089 49.4731 7.3953C48.6132 7.18275 47.8009 6.98212 47.2277 6.60444C46.6632 6.23272 46.1693 5.57542 45.6463 4.87952C44.8841 3.86516 44.0958 2.81637 42.8666 2.3149C42.3512 2.10474 41.7723 2.00252 41.0967 2.00252C40.4309 2.00252 39.758 2.10045 39.1075 2.19517C38.4924 2.28464 37.9115 2.36935 37.3755 2.36935C37.1215 2.36935 36.9004 2.35029 36.6996 2.31121C36.0489 2.18456 35.3447 1.76864 34.5993 1.3283C33.5447 0.705789 32.3498 0 31 0C29.6502 0 28.4553 0.705789 27.4011 1.32842C26.6556 1.76876 25.9515 2.18468 25.3007 2.31133C25.0998 2.35041 24.8787 2.36947 24.6249 2.36947C24.0887 2.36947 23.5077 2.28488 22.8929 2.19529C22.2421 2.10057 21.5693 2.0024 20.9037 2.0024C20.2281 2.0024 19.649 2.10462 19.1338 2.31478C17.9046 2.81625 17.1164 3.86516 16.3542 4.87928C15.8313 5.57519 15.3374 6.23248 14.773 6.60432C14.1996 6.98188 13.3874 7.18251 12.5274 7.39506C11.2905 7.70054 10.0115 8.01661 9.08009 8.93304C8.14864 9.84947 7.8275 11.1077 7.51702 12.3247C7.30098 13.1708 7.09706 13.97 6.71332 14.534C6.3355 15.0892 5.66743 15.5753 4.96 16.0897C3.92901 16.8396 2.86314 17.6152 2.35334 18.8246C1.85358 20.0103 2.04576 21.2878 2.23164 22.5232C2.36242 23.3927 2.48593 24.2139 2.34958 24.8923C2.22086 25.5327 1.79812 26.2255 1.35056 26.9589C0.717359 27.9965 0 29.1719 0 30.5C0 31.8281 0.717359 33.0035 1.3502 34.0407C1.79776 34.7743 2.2205 35.4671 2.34922 36.1075C2.48557 36.7857 2.36205 37.607 2.23127 38.4766C2.04539 39.712 1.8531 40.9894 2.35285 42.1751C2.86254 43.3845 3.92864 44.1601 4.95952 44.9099C5.6667 45.4245 6.3349 45.9105 6.71283 46.4658C7.09658 47.0299 7.30062 47.829 7.51653 48.6751C7.82714 49.892 8.14828 51.1503 9.07961 52.0667C10.0111 52.9831 11.2901 53.2991 12.5269 53.6047C13.3868 53.8172 14.1991 54.0179 14.7723 54.3956C15.3368 54.7673 15.8307 55.4246 16.3537 56.1205C17.1159 57.1348 17.9042 58.1836 19.1334 58.6851C19.6488 58.8955 20.2279 58.9976 20.9034 58.9975C21.5691 58.9975 22.2418 58.8996 22.8924 58.8048C23.5076 58.7154 24.0885 58.6306 24.6245 58.6306C24.8785 58.6306 25.0995 58.6497 25.3004 58.6888C25.9511 58.8154 26.6553 59.2314 27.4006 59.6717C28.4553 60.2942 29.6502 61 31 61C32.3498 61 33.5447 60.2942 34.5989 59.6716C35.3444 59.2312 36.0485 58.8153 36.6993 58.6887C36.9002 58.6496 37.1213 58.6305 37.3751 58.6305C37.9113 58.6305 38.4923 58.7151 39.1071 58.8047C39.7579 58.8996 40.4307 58.9976 41.0963 58.9976C41.7719 58.9976 42.351 58.8954 42.8662 58.6852C44.0954 58.1838 44.8836 57.1348 45.6458 56.1207C46.1687 55.4248 46.6626 54.7675 47.227 54.3957C47.8004 54.0181 48.6126 53.8175 49.4726 53.6049C50.7095 53.2995 51.9885 52.9834 52.9199 52.067C53.8514 51.1505 54.1725 49.8923 54.483 48.6753C54.699 47.8292 54.9029 47.03 55.2867 46.466C55.6645 45.9108 56.3326 45.4247 57.04 44.9103C58.071 44.1604 59.1369 43.3848 59.6467 42.1754C60.1464 40.9897 59.9542 39.7122 59.7684 38.4768C59.6376 37.6073 59.5141 36.7861 59.6504 36.1077C59.7795 35.4671 60.2022 34.7743 60.6498 34.0407ZM59.0024 33.0678C58.4896 33.9081 57.9596 34.777 57.766 35.7408C57.5652 36.7395 57.7192 37.7634 57.8682 38.7536C58.0224 39.7797 58.1684 40.749 57.8723 41.4513C57.5666 42.1765 56.7562 42.7661 55.8981 43.3902C55.0898 43.9781 54.2542 44.5861 53.6905 45.4144C53.1212 46.2513 52.8663 47.2495 52.6201 48.215C52.3617 49.2274 52.1177 50.1835 51.5617 50.7304C51.0059 51.2773 50.034 51.5175 49.0052 51.7716C48.024 52.0141 47.0093 52.2647 46.1586 52.825C45.3168 53.3796 44.6989 54.2018 44.1011 54.997C43.4668 55.8412 42.8675 56.6384 42.1305 56.9393C41.853 57.0525 41.5147 57.1076 41.0966 57.1076C40.5722 57.1076 39.9974 57.0238 39.3888 56.9352C38.7318 56.8395 38.0527 56.7406 37.3752 56.7406C36.9946 56.7406 36.6517 56.7713 36.3264 56.8346C35.3469 57.0253 34.4638 57.5468 33.6098 58.0512C32.688 58.5954 31.8173 59.1097 30.9999 59.1097C30.1825 59.1097 29.3118 58.5954 28.3899 58.0509C27.536 57.5465 26.653 57.025 25.6733 56.8344C25.3482 56.7711 25.0051 56.7404 24.6245 56.7404C23.9469 56.7404 23.2677 56.8393 22.611 56.9348C22.0024 57.0236 21.4275 57.1072 20.9032 57.1072C20.4849 57.1072 20.1469 57.0522 19.8693 56.939C19.1321 56.6383 18.5328 55.841 17.8984 54.9966C17.3009 54.2015 16.683 53.3793 15.8411 52.8247C14.9904 52.2645 13.9758 52.0137 12.9944 51.7714C11.9655 51.5171 10.9939 51.2771 10.4379 50.7302C9.8821 50.1833 9.63809 49.2272 9.37968 48.2149C9.13325 47.2495 8.87847 46.2512 8.30897 45.4144C7.7454 44.5861 6.90961 43.9781 6.10143 43.3902C5.24336 42.7659 4.43288 42.1764 4.12724 41.4513C3.83116 40.749 3.97708 39.7797 4.13148 38.7537C4.28042 37.7636 4.43457 36.7399 4.23368 35.7409C4.03981 34.7771 3.50978 33.9083 2.99719 33.068C2.44379 32.1611 1.92115 31.3044 1.92115 30.5002C1.92115 29.6962 2.44379 28.8395 2.99719 27.9324C3.51002 27.0921 4.04005 26.2232 4.23368 25.2595C4.43445 24.2607 4.28042 23.2368 4.13148 22.2467C3.9772 21.2205 3.83129 20.2513 4.12736 19.549C4.433 18.8237 5.24348 18.2342 6.10155 17.6101C6.90985 17.0221 7.7454 16.4141 8.30909 15.5859C8.87847 14.7489 9.13338 13.7507 9.37956 12.7852C9.63797 11.7729 9.88198 10.8168 10.4379 10.2698C10.9937 9.72295 11.9656 9.48276 12.9944 9.22863C13.9757 8.98618 14.9903 8.73551 15.841 8.17519C16.6828 7.62059 17.3008 6.7984 17.8985 6.00326C18.5328 5.15903 19.1321 4.36186 19.8692 4.06091C20.1466 3.94772 20.4849 3.89268 20.9031 3.89268C21.4274 3.89268 22.0023 3.97644 22.6109 4.06508C23.2678 4.16075 23.9469 4.25963 24.6244 4.25963C25.005 4.25963 25.3479 4.2289 25.6732 4.16563C26.6527 3.97489 27.5359 3.45341 28.3898 2.94909C29.3116 2.40485 30.1824 1.89052 30.9998 1.89052C31.8171 1.89052 32.6878 2.40485 33.6097 2.94933C34.4636 3.45365 35.3467 3.97525 36.3263 4.16587C36.6514 4.22913 36.9945 4.25987 37.3751 4.25987C38.0527 4.25987 38.732 4.16099 39.3886 4.06544C39.9973 3.97668 40.572 3.89304 41.0964 3.89304C41.5147 3.89304 41.8528 3.94808 42.1303 4.06127C42.8675 4.36198 43.4668 5.15927 44.1013 6.00361C44.6987 6.79876 45.3167 7.62095 46.1585 8.17555C47.0092 8.73575 48.0238 8.98654 49.0052 9.22887C50.0341 9.48312 51.0058 9.72319 51.5617 10.27C52.1177 10.8169 52.3615 11.773 52.62 12.7853C52.8664 13.7507 53.1212 14.749 53.6907 15.586C54.2541 16.4142 55.09 17.0222 55.8982 17.6102C56.7563 18.2345 57.5668 18.824 57.8724 19.5491C58.1685 20.2514 58.0226 21.2206 57.8682 22.2467C57.7192 23.2367 57.5651 24.2605 57.766 25.2595C57.9598 26.2232 58.4899 27.0921 59.0024 27.9324C59.5558 28.8393 60.0785 29.6959 60.0785 30.5001C60.0785 31.3041 59.5558 32.1607 59.0024 33.0678Z" fill="currentColor"/>
<path d="M31 9.38947C19.1689 9.38947 9.5434 18.8596 9.5434 30.5C9.5434 42.1404 19.1689 51.6105 31 51.6105C42.8311 51.6105 52.4566 42.1404 52.4566 30.5C52.4566 18.8596 42.8311 9.38947 31 9.38947ZM31 49.72C20.2282 49.72 11.4649 41.0979 11.4649 30.5C11.4649 19.9021 20.2282 11.28 31 11.28C41.7718 11.28 50.5351 19.902 50.5351 30.5C50.5351 41.098 41.7718 49.72 31 49.72Z" fill="currentColor"/>
<path d="M46.9123 29.4586L41.9386 19.586C41.9362 19.5813 41.9332 19.5772 41.9305 19.5725C41.9137 19.5404 41.8953 19.5093 41.8748 19.4791C41.8725 19.4757 41.8704 19.4721 41.868 19.4686C41.845 19.4358 41.8195 19.4044 41.7921 19.3744C41.787 19.3688 41.7816 19.3637 41.7765 19.3582C41.7533 19.3339 41.7285 19.3108 41.7026 19.2889C41.6964 19.2837 41.6904 19.2782 41.6842 19.2732C41.6533 19.2486 41.6209 19.2251 41.5864 19.2039C41.5826 19.2016 41.5787 19.1999 41.5749 19.1976C41.5521 19.184 41.529 19.1708 41.5046 19.1589C41.4971 19.1552 41.4894 19.1526 41.4819 19.1492C41.4711 19.1443 41.4602 19.1398 41.4493 19.1354C41.42 19.1232 41.3904 19.1128 41.3608 19.1036C41.3525 19.1011 41.3447 19.0982 41.3364 19.0958C41.2971 19.085 41.2573 19.0765 41.2176 19.0709C41.2123 19.0702 41.2067 19.07 41.2014 19.0692C41.1653 19.0646 41.1291 19.0622 41.093 19.0617C41.0881 19.0615 41.083 19.0607 41.078 19.0607H20.9741C20.9683 19.0607 20.9628 19.0619 20.9569 19.0619C20.9232 19.0624 20.8893 19.0648 20.8554 19.0689C20.8477 19.0698 20.84 19.0705 20.8323 19.0714C20.7932 19.0771 20.7544 19.0851 20.7156 19.0958C20.7075 19.0981 20.6999 19.101 20.6918 19.1034C20.6621 19.1124 20.6325 19.1229 20.6034 19.1348C20.5921 19.1395 20.5808 19.1442 20.5698 19.1493C20.5611 19.1533 20.5524 19.1564 20.5438 19.1605C20.5232 19.1708 20.5038 19.1822 20.4843 19.1937C20.478 19.1974 20.4715 19.2005 20.4652 19.2043C20.4308 19.2254 20.3986 19.2482 20.3679 19.2728C20.3623 19.2773 20.3569 19.2823 20.3512 19.2871C20.3253 19.3087 20.3009 19.3315 20.2777 19.3557C20.2717 19.3619 20.2657 19.368 20.2598 19.3744C20.2326 19.4043 20.2069 19.4352 20.1839 19.4679C20.1599 19.5026 20.1404 19.5357 20.1225 19.5697C20.1201 19.5742 20.1169 19.5781 20.1145 19.5828L15.0886 29.4554C14.9086 29.8093 14.9715 30.2364 15.2467 30.5251L30.2984 46.3213C30.4794 46.5107 30.7314 46.6185 30.9953 46.6197C31.2653 46.62 31.519 46.5118 31.7006 46.3211L46.7523 30.525C47.0267 30.237 47.0904 29.812 46.9123 29.4586ZM39.5295 20.951L36.0952 27.7676L32.5889 20.951H39.5295ZM34.5412 28.9332H27.5558L31.0304 22.1078L34.5412 28.9332ZM29.4702 20.951L26.0001 27.7676L22.53 20.951H29.4702ZM17.1073 29.7125L20.9741 22.1164L24.4442 28.9331H21.2158C20.6851 28.9331 20.2551 29.3562 20.2551 29.8783C20.2551 30.4004 20.6851 30.8236 21.2158 30.8236H25.2928L28.838 42.0235L17.1073 29.7125ZM31.0094 42.5253L27.3055 30.8237H34.7905L31.0094 42.5253ZM33.2011 41.9824L36.8068 30.8236H40.7839C41.3146 30.8236 41.7446 30.4004 41.7446 29.8783C41.7446 29.3562 41.3146 28.9331 40.7839 28.9331H37.6526L41.0779 22.1341L44.8948 29.7103L33.2011 41.9824Z" fill="currentColor"/>
<path d="M31 5.60843C17.0498 5.60843 5.70038 16.7748 5.70038 30.5C5.70038 36.4116 7.85343 42.1466 11.7629 46.6484C12.1074 47.0453 12.7141 47.0922 13.1175 46.7531C13.5209 46.414 13.5686 45.8172 13.2238 45.4203C9.61146 41.2605 7.62189 35.9618 7.62189 30.5C7.62189 17.8171 18.1092 7.49895 31 7.49895C43.8908 7.49895 54.3781 17.8171 54.3781 30.5C54.3781 43.1829 43.8908 53.5011 31 53.5011C25.4487 53.5011 20.0631 51.5436 15.835 47.9894C15.4315 47.6501 14.8249 47.6971 14.4804 48.094C14.1358 48.4908 14.1834 49.0875 14.5867 49.4267C19.1624 53.2733 24.9915 55.3916 30.9999 55.3916C44.9501 55.3916 56.2995 44.2254 56.2995 30.5C56.2995 16.7746 44.9503 5.60843 31 5.60843Z" fill="currentColor"/>
</svg>
