<svg width="63" height="68" viewBox="0 0 63 68" fill="none" xmlns="http://www.w3.org/2000/svg">
<path d="M36.3689 9.32438C37.1933 8.34301 37.7031 7.10568 37.7031 5.76123C37.7031 2.58435 34.9623 0 31.5831 0C28.2038 0 25.459 2.58435 25.459 5.76123C25.459 7.10594 25.8964 8.34301 26.7203 9.32438C24.1973 10.828 22.461 13.4746 22.461 16.4849V23.4943C22.461 24.5611 23.4978 25.4871 24.6326 25.4871H38.5503C39.6851 25.4871 40.5395 24.5609 40.5395 23.4943V16.4849C40.5392 13.4746 38.8924 10.8277 36.3689 9.32438Z" fill="white"/>
<path d="M17.8045 32.0698V25.0605C17.8045 22.0504 16.2285 19.4033 13.7049 17.8999C14.5294 16.9186 15.0745 15.6812 15.0745 14.3368C15.0745 11.1599 12.3512 8.57555 8.97198 8.57555C5.59273 8.57555 2.85663 11.1602 2.85663 14.337C2.85663 15.6817 3.36473 16.9188 4.18866 17.9002C1.66538 19.4038 0 22.0504 0 25.0607V32.0701C0 33.1369 0.904183 33.9852 2.03873 33.9852H15.9565C17.0913 33.9849 17.8045 33.1367 17.8045 32.0698Z" fill="white"/>
<path d="M58.9039 17.9002C59.7278 16.9188 60.2751 15.6815 60.2751 14.337C60.2751 11.1602 57.5527 8.57581 54.1734 8.57581C50.7942 8.57581 48.0584 11.1602 48.0584 14.337C48.0584 15.6817 48.5632 16.9188 49.3874 17.9002C46.8641 19.4038 45.1954 22.0504 45.1954 25.0607V32.0701C45.1954 33.1369 46.1065 33.9852 47.2413 33.9852H61.159C62.2938 33.9852 63 33.1369 63 32.0701V25.0607C63 22.0504 61.4269 19.4035 58.9039 17.9002Z" fill="white"/>
<path d="M36.3689 51.8787C37.1933 50.8973 37.7031 49.6602 37.7031 48.3158C37.7031 45.1389 34.9623 42.5545 31.5831 42.5545C28.2038 42.5545 25.459 45.1389 25.459 48.3158C25.459 49.6602 25.8964 50.8975 26.7203 51.8789C24.1973 53.3825 22.461 56.0292 22.461 59.0394V66.0488C22.461 67.1157 23.4978 67.976 24.6326 67.976H38.5503C39.6851 67.976 40.5395 67.1154 40.5395 66.0488V59.0394C40.5392 56.0289 38.8924 53.3825 36.3689 51.8787ZM31.5913 46.4172C32.7048 46.4172 33.6109 47.269 33.6109 48.3158C33.6109 49.3628 32.7048 50.2144 31.5913 50.2144C30.4779 50.2144 29.5718 49.3625 29.5718 48.3158C29.5718 47.269 30.4776 46.4172 31.5913 46.4172ZM36.4305 64.1134H26.5697V59.0394C26.5697 56.4968 28.7958 54.4285 31.5004 54.4285C34.2044 54.4285 36.4305 56.4968 36.4305 59.0394V64.1134Z" fill="white"/>
<path d="M33.4175 35.6791V29.279C33.4175 28.2121 32.498 27.3476 31.3632 27.3476C30.2284 27.3476 29.3088 28.2121 29.3088 29.279V35.6791C29.3088 36.7459 30.2284 37.6104 31.3632 37.6104C32.4977 37.6104 33.4175 36.7457 33.4175 35.6791Z" fill="white"/>
<path d="M11.5985 36.0967C10.7743 35.3636 9.47487 35.3968 8.69395 36.1712C7.91384 36.9457 7.94945 38.1681 8.77311 38.9018L19.102 48.0966C19.4995 48.4502 20.0073 48.6255 20.5143 48.6255C21.0586 48.6255 21.6023 48.4231 22.0063 48.0222C22.7864 47.2476 22.7508 46.0252 21.9272 45.2916L11.5985 36.0967Z" fill="white"/>
<path d="M51.565 36.0694L41.2643 45.2854C40.4423 46.0206 40.4102 47.2432 41.1922 48.0158C41.596 48.4149 42.1378 48.6158 42.6807 48.6158C43.1893 48.6158 43.6991 48.4391 44.0965 48.0835L54.3972 38.8675C55.2192 38.1323 55.2513 36.91 54.4693 36.1374C53.6873 35.3641 52.3867 35.3345 51.565 36.0694Z" fill="white"/>
</svg>
