<svg width="92" height="92" viewBox="0 0 92 92" fill="none" xmlns="http://www.w3.org/2000/svg">
<path d="M43.3 73.8C42.5 73.8 41.7 73.5 41.1 73C40.1 72.2 39.6 70.9 39.9 69.6L44.8 44.6L42.1 46.1C40.4 47 38.3 46.5 37.3 44.8C36.4 43.1 36.9 41 38.6 40L47.9 34.7C49.1 34 50.6 34.1 51.7 34.9C52.8 35.7 53.3 37.1 53.1 38.4L48 64.4L52.2 62.6C54 61.8 56 62.6 56.8 64.4C57.6 66.2 56.8 68.2 55 69L44.7 73.5C44.3 73.7 43.8 73.8 43.3 73.8ZM53.2 26C54.1 25.1 54.7 23.8 54.7 22.5C54.7 21.2 54.2 19.9 53.2 19C52.3 18.1 51 17.5 49.7 17.5C48.4 17.5 47.1 18 46.2 19C45.3 19.9 44.7 21.2 44.7 22.5C44.7 23.8 45.2 25.1 46.2 26C47.1 26.9 48.4 27.5 49.7 27.5C51 27.5 52.3 27 53.2 26ZM92 46C92 20.6 71.4 0 46 0C20.6 0 0 20.6 0 46C0 71.4 20.6 92 46 92C71.4 92 92 71.4 92 46ZM84 46C84 67 67 84 46 84C25 84 8 67 8 46C8 25 25 8 46 8C67 8 84 25 84 46Z" fill="#0070AD"/>
</svg>
