<svg width="77" height="67" viewBox="0 0 77 67" fill="none" xmlns="http://www.w3.org/2000/svg">
<path d="M15.7061 16.5568V20.8926C15.7061 23.9256 18.542 26.3931 22.0277 26.3931C25.5132 26.3931 28.3488 23.9256 28.3488 20.8926C28.3488 20.1306 29.0586 19.513 29.9343 19.513C30.81 19.513 31.5197 20.1306 31.5197 20.8926C31.5197 25.4469 27.2616 29.1522 22.0277 29.1522C16.7936 29.1522 12.5353 25.4471 12.5353 20.8926V16.5568C12.5353 15.7949 13.245 15.1773 14.1207 15.1773C14.9964 15.1773 15.7061 15.7949 15.7061 16.5568ZM7.22912 23.7501C8.10481 23.7501 8.81457 23.1325 8.81457 22.3705V14.2561C8.81457 7.91659 14.7417 2.75909 22.0278 2.75909C29.0445 2.75909 34.8011 7.54304 35.2163 13.5594C35.2322 13.7899 35.2402 14.5965 35.2402 14.5965C33.0469 13.4372 30.1103 13.029 27.3911 12.6509C21.9852 11.8993 19.6329 11.3003 19.794 8.72025C19.8417 7.95951 19.1712 7.30913 18.2969 7.2679C17.4216 7.22774 16.6752 7.80991 16.6278 8.57065C16.4776 10.9761 17.6474 12.7514 20.1051 13.8474C22.0097 14.6969 24.4909 15.0418 26.8908 15.3755C31.4033 16.0029 34.4481 16.58 35.2402 18.7046V22.3707C35.2402 24.2286 33.8623 26.8749 31.9637 28.6629C31.3695 29.2226 31.4091 30.0954 32.0523 30.6124C32.357 30.8576 32.743 30.9787 33.1277 30.9787C33.5546 30.9787 33.9802 30.8296 34.2925 30.5353C36.7558 28.2154 38.411 24.9342 38.411 22.3707V18.5299C38.4113 18.5142 38.4113 18.4986 38.411 18.4828V14.2561C38.4111 6.39526 31.0617 0 22.0273 0C12.9933 0 5.64367 6.39526 5.64367 14.2561V22.3705C5.64367 23.1325 6.35343 23.7501 7.22912 23.7501ZM39.8701 39.8009C38.4568 37.7009 35.8991 36.1503 33.1954 35.7541L27.9639 34.9874C27.1399 34.8667 26.3482 35.3238 26.1571 36.0325L20.4838 57.0642C20.2837 57.806 20.8125 58.5485 21.665 58.7224C22.5178 58.8969 23.3707 58.4364 23.5707 57.6947L28.9039 37.9229L32.6685 38.4747C34.471 38.739 36.182 39.7813 37.1338 41.1952C37.8561 42.2682 38.0236 43.4179 37.6056 44.4325L29.4419 64.2406H13.3213L5.15782 44.4328C4.73979 43.4181 4.90732 42.2682 5.62976 41.1952C6.58138 39.7813 8.29225 38.7391 10.0951 38.4749L13.8788 37.9203L16.9773 45.8453C17.2595 46.5668 18.1604 46.9526 18.9889 46.7071C19.8179 46.4617 20.2613 45.6781 19.9793 44.9567L16.4464 35.9207C16.1961 35.2802 15.4488 34.8925 14.6819 35.0045L9.56818 35.7541C6.86464 36.1503 4.30714 37.7009 2.89345 39.8006C2.4446 40.4674 2.12751 41.1598 1.94448 41.8592C1.78716 42.4602 1.75916 45.6091 1.75916 45.6091V65.6202C1.75916 66.3821 2.46891 66.9997 3.3446 66.9997C4.2203 66.9997 4.93005 66.3821 4.93005 65.6202V52.0536L10.713 66.0858C10.9389 66.634 11.5362 66.9997 12.2055 66.9997H30.5579C31.2271 66.9997 31.8243 66.634 32.0503 66.0858L37.8333 52.0539V65.6202C37.8333 66.3821 38.5431 66.9997 39.4188 66.9997C40.2945 66.9997 41.0042 66.3821 41.0042 65.6202V45.9158C41.0042 45.9158 41.01 43.2243 40.9984 43.0022C40.9417 41.92 40.5626 40.8299 39.8701 39.8009ZM8.86565 43.2932V44.37C8.86565 45.1319 9.5754 45.7495 10.4511 45.7495C11.3268 45.7495 12.0365 45.1319 12.0365 44.37V43.2932C12.0365 42.5312 11.3268 41.9136 10.4511 41.9136C9.5754 41.9136 8.86565 42.5313 8.86565 43.2932ZM73.6554 15.7512H60.7795L50.8056 4.36718C50.5058 4.0249 50.0393 3.8241 49.5448 3.8241C49.0504 3.8241 48.5839 4.02505 48.2841 4.36718L42.5102 10.9571C41.9793 11.563 42.1135 12.4286 42.8099 12.8906C43.5059 13.3528 44.5012 13.236 45.0318 12.6299L49.5448 7.47897L56.7925 15.751H46.2998C45.4241 15.751 44.7143 16.3686 44.7143 17.1306C44.7143 17.8925 45.4241 18.5101 46.2998 18.5101H59.9799C59.9907 18.5103 60.0012 18.5103 60.012 18.5101H72.0702V51.5724H49.7353C48.8596 51.5724 48.1498 52.19 48.1498 52.952C48.1498 53.7139 48.8596 54.3315 49.7353 54.3315H73.6554C74.5311 54.3315 75.2409 53.7139 75.2409 52.952V17.1307C75.2409 16.3689 74.531 15.7512 73.6554 15.7512ZM65.4752 47.2931C65.7849 47.5624 66.1906 47.6971 66.5963 47.6971C67.002 47.6971 67.4077 47.5624 67.7174 47.2931C68.3366 46.7543 68.3366 45.8809 67.7174 45.3421L63.5676 41.7312V28.3519L67.7174 24.7412C68.3368 24.2024 68.3368 23.329 67.7176 22.7902C67.0984 22.2514 66.0948 22.2514 65.4752 22.7902L61.3254 26.4009H47.0939C46.2182 26.4009 45.5085 27.0185 45.5085 27.7805C45.5085 28.5425 46.2182 29.16 47.0939 29.16H60.3967V40.9231H47.0939C46.2182 40.9231 45.5085 41.5407 45.5085 42.3026C45.5085 43.0646 46.2182 43.6822 47.0939 43.6822H61.3254L65.4752 47.2931Z" fill="#0070ad"/>
</svg>
