<svg width="79" height="71" viewBox="0 0 79 71" fill="none" xmlns="http://www.w3.org/2000/svg">
<path d="M74.4236 2.29035C73.4567 2.29035 72.5674 2.57653 71.8359 3.04957C71.0496 1.91135 69.658 1.14516 68.0625 1.14516C67.0956 1.14516 66.2062 1.43134 65.4747 1.90437C64.6887 0.766157 63.2971 -3.05176e-05 61.7016 -3.05176e-05C59.2464 -3.05176e-05 57.2488 1.79784 57.2488 4.00814V17.1442C54.1815 15.6452 50.9032 14.887 47.472 14.887C40.4 14.887 35.264 17.7476 32.2018 20.1479C31.0696 21.0343 30.4639 22.3192 30.539 23.6726C30.6154 25.0355 31.3686 26.2723 32.6076 27.0611C34.4548 28.2371 36.9509 28.1159 38.676 26.7679C40.4558 25.3777 43.425 23.7217 47.472 23.7217C52.59 23.7217 56.0212 27.0827 57.2488 28.5131V40.1974C56.0212 41.6278 52.59 44.9876 47.472 44.9876C43.424 44.9876 40.4545 43.3316 38.676 41.9438C36.9496 40.5925 34.4521 40.4756 32.6076 41.6494C31.3686 42.4385 30.6141 43.6753 30.539 45.0379C30.4639 46.3916 31.0696 47.6762 32.2018 48.5627C35.2654 50.9617 40.4 53.8223 47.472 53.8223C49.4974 53.8223 51.4947 53.5499 53.4324 53.0116V71H75.0597V48.9313C77.431 47.4357 78.8764 44.9794 78.8764 42.3706V6.29781C78.8764 4.08822 76.8791 2.29035 74.4236 2.29035ZM76.3319 42.3711C76.3319 44.3936 75.1118 46.2886 73.1476 47.3172L72.5153 47.6481V68.7101H55.9766V49.6773L54.2221 50.3254C52.053 51.127 49.7822 51.5324 47.4717 51.5324C41.187 51.5324 36.606 48.9787 33.8719 46.835C33.3325 46.4113 33.0437 45.7985 33.0792 45.1516C33.1161 44.4944 33.4786 43.8977 34.0765 43.5175C34.9619 42.9519 36.1681 43.0149 37.0075 43.6721C39.113 45.3166 42.6383 47.2761 47.4715 47.2761C54.185 47.2761 58.415 42.6621 59.5509 41.2469L59.7927 40.9491V27.7614L59.5509 27.4613C58.415 26.047 54.1847 21.4308 47.4715 21.4308C42.6409 21.4308 39.1144 23.3913 37.0075 25.0369C36.1692 25.692 34.9643 25.755 34.0765 25.1904C33.4786 24.8101 33.1161 24.2135 33.0792 23.5563C33.0437 22.9103 33.3325 22.2966 33.8719 21.8729C36.6071 19.7313 41.187 17.1776 47.4717 17.1776C51.1345 17.1776 54.6101 18.1706 57.8045 20.1298L59.793 21.3505V4.00814C59.793 3.06111 60.6493 2.29035 61.7013 2.29035C62.7534 2.29035 63.6097 3.06111 63.6097 4.00814V5.15334V27.4841H66.1541V5.15334C66.1541 4.2063 67.0104 3.43555 68.0625 3.43555C69.1145 3.43555 69.9708 4.2063 69.9708 5.15334V6.29853V27.4841H72.5153V6.29829C72.5153 5.35125 73.3715 4.5805 74.4236 4.5805C75.4757 4.5805 76.3319 5.35125 76.3319 6.29829V42.3711Z" fill="currentColor"/>
<path d="M26.7162 48.097H19.1454L19.9252 46.4928C20.2113 45.9065 20.3553 45.2903 20.3553 44.6617C20.3553 42.1354 18.073 40.0809 15.2664 40.0809C12.4599 40.0809 10.1775 42.1354 10.1775 44.6617C10.1775 45.2903 10.3213 45.9065 10.6077 46.4928L11.3875 48.097H3.81668C1.71251 48.097 0 46.5555 0 44.6615V37.8466L1.78224 38.5486C2.43358 38.8061 3.11805 38.9357 3.81641 38.9357C6.62295 38.9357 8.90531 36.8813 8.90531 34.355C8.90531 31.8287 6.62295 29.7742 3.81641 29.7742C3.11805 29.7742 2.43358 29.9036 1.78224 30.1614L0 30.8634V24.0485C0 22.1544 1.71251 20.6129 3.81668 20.6129H7.74129C7.66889 20.2361 7.63309 19.8537 7.63309 19.4677C7.63309 15.6784 11.0565 12.5968 15.2662 12.5968C19.4758 12.5968 22.8993 15.6784 22.8993 19.4677C22.8993 19.8537 22.8637 20.2361 22.7911 20.6129H26.7162C28.8204 20.6129 30.5329 22.1544 30.5329 24.0485V27.5812C30.9515 27.516 31.3763 27.4838 31.8051 27.4838C36.0148 27.4838 39.4382 30.5654 39.4382 34.3547C39.4382 38.1441 36.0148 41.2257 31.8051 41.2257C31.3763 41.2257 30.9515 41.1937 30.5329 41.1283V44.661C30.5329 46.5555 28.8204 48.097 26.7162 48.097Z" fill="currentColor"/>
</svg>
