<svg width="51" height="54" viewBox="0 0 51 54" fill="none" xmlns="http://www.w3.org/2000/svg">
<path d="M18.8198 13.3252H19.9406H27.9643C29.5119 13.3252 30.7665 11.9968 30.7665 10.3581C30.7665 8.71951 29.5119 7.39111 27.9643 7.39111C27.9643 7.39111 24.9326 7.39111 19.6873 7.39111C14.3953 7.39111 8.85873 10.2596 8.85873 10.2596L8.83911 23.8948C14.3426 23.8939 18.8198 19.1527 18.8198 13.3252Z" fill="#0070ad"/>
<path d="M48.1978 24.0065H30.7667V21.589L30.8172 21.6329H45.1497C46.6973 21.6329 47.9519 20.3045 47.9519 18.6658C47.9519 17.0272 46.6973 15.6988 45.1497 15.6988H21.9932C20.925 22.3567 15.4439 27.444 8.85889 27.4549V43.6873C8.85889 43.6873 14.3955 46.6088 19.6875 46.6088H41.7875C43.3489 46.6088 44.6147 45.2685 44.6147 43.6153C44.6147 41.962 43.349 40.6218 41.7875 40.6218H30.7667V38.2481H45.1497C46.6973 38.2481 47.9519 36.9197 47.9519 35.2811C47.9519 33.6425 46.6973 32.3141 45.1497 32.3141H30.7667V29.9404H48.1978C49.7454 29.9404 51 28.612 51 26.9734C51 25.3348 49.7454 24.0065 48.1978 24.0065Z" fill="#0070ad"/>
<path d="M5.60439 8.47942H0V45.4676H5.60439V8.47942Z" fill="#0070ad"/>
</svg>
