<svg width="49" height="49" viewBox="0 0 49 49" fill="none" xmlns="http://www.w3.org/2000/svg">
<path d="M48.8246 11.8587L45.62 7.16443V1.09956C45.62 0.761028 45.4378 0.441187 45.1258 0.232888C44.8136 0.0244662 44.4064 -0.0492021 44.023 0.0327738L28.4711 3.35909C28.3506 3.32708 22.8697 3.3889 20.5292 3.35909L4.97759 0.0327738C4.59342 -0.0492021 4.1867 0.0244662 3.8748 0.232888C3.56275 0.441187 3.38052 0.760906 3.38052 1.09956V7.16358L0.175405 11.8588C0.0280236 12.0747 -0.028958 12.327 0.0138854 12.5741L5.92857 46.7687C6.02183 47.3079 6.5628 47.7073 7.20002 47.7073H16.2681C16.978 47.7073 17.5534 47.2151 17.5534 46.6078C17.5534 46.0005 16.978 45.5083 16.2681 45.5083H8.3091L2.62291 12.6342L4.7488 9.51999L14.1295 15.5781C14.6781 15.9326 15.4552 15.855 15.8937 15.4022L18.5754 12.6334L19.5478 13.5092L14.938 40.2269C14.8851 40.533 14.9855 40.8441 15.2147 41.0836L22.3989 48.5966C22.6429 48.8519 23.0083 49 23.3937 49H25.6077C25.9933 49 26.3585 48.8519 26.6025 48.5966L33.7865 41.0836C34.0156 40.8441 34.1161 40.533 34.0633 40.2269L29.4532 13.5092L30.4255 12.6335L33.1073 15.4022C33.5455 15.8549 34.3229 15.9326 34.8715 15.5781L44.2518 9.52023L46.3777 12.6343L45.1051 19.9918H36.0348C35.974 19.9909 35.378 19.9938 34.9934 20.4142C34.6041 20.8397 34.7504 21.3327 34.7671 21.3844L36.0171 25.6229C36.2527 26.4026 36.955 26.4739 37.2968 26.476H43.9834L40.6909 45.5083H32.7324C32.0225 45.5083 31.4471 46.0005 31.4471 46.6078C31.4471 47.2151 32.0225 47.7073 32.7324 47.7073H41.8C42.4372 47.7073 42.9782 47.3079 43.0714 46.7687L48.9861 12.5741C49.029 12.327 48.972 12.0746 48.8246 11.8587ZM17.3548 10.4466L14.6979 13.19L5.95113 7.54108V2.50781L19.2233 5.34643L17.3548 10.4466ZM21.8578 5.50891H27.1424L29.0398 10.6881L27.538 12.0406H21.4625L19.9604 10.6874L21.8578 5.50891ZM31.437 40.0673L24.9983 46.8008H24.0027L17.5639 40.0673L22.02 14.2397H23.2149V18.7386C23.2149 19.3459 23.7903 19.8381 24.5002 19.8381C25.2101 19.8381 25.7855 19.3459 25.7855 18.7386V14.2397H26.9804L31.437 40.0673ZM43.0494 7.54108L34.3027 13.1898L31.6454 10.4465L29.7768 5.34643L43.0494 2.50781V7.54108ZM44.3633 24.2771H38.271L37.6556 22.1908H44.7242L44.3633 24.2771Z" fill="#0070ad"/>
</svg>
