<svg width="101" height="94" viewBox="0 0 101 94" fill="none" xmlns="http://www.w3.org/2000/svg">
<g opacity="0.4">
<path opacity="0.4" d="M50.5004 0L52.6971 40.7075L80.183 8.97624L56.252 43.1108L98.5286 32.4757L57.6092 47.0004L98.5286 61.5236L56.252 50.8892L80.183 85.0238L52.6971 53.2925L50.5004 94L48.3028 53.2925L20.817 85.0238L44.7488 50.8892L2.47131 61.5236L43.3916 47.0004L2.47131 32.4757L44.7488 43.1108L20.817 8.97624L48.3028 40.7075L50.5004 0Z" fill="white"/>
</g>
<path d="M50.5004 21.6527L56.5679 39.031H76.2006L60.3171 49.7715L66.3838 67.1498L50.5004 56.4092L34.617 67.1498L40.6837 49.7715L24.7994 39.031H44.4337L50.5004 21.6527Z" fill="white"/>
</svg>
