<svg width="58" height="59" viewBox="0 0 58 59" fill="none" xmlns="http://www.w3.org/2000/svg">
<g clip-path="url(#clip0_9_125)">
<path d="M57.3072 39.8758C58.1071 39.2654 58.2072 38.0447 57.6071 37.231C56.3071 35.5016 55.3072 34.993 51.0071 37.3327L42.3071 42.7241C39.6072 44.1483 32.7071 43.7414 29.7071 43.7414C29.7071 43.7414 36.8071 44.25 34.0071 39.9776C32.6071 37.8414 30.2071 36.6207 27.6071 36.6207H23.707C21.4071 36.6207 19.207 35.9086 17.407 34.5862C13.107 31.2293 5.00702 37.638 5.00702 37.638V55.9484H19.007C21.007 55.9484 23.007 55.7449 25.007 55.4397L38.0071 53.4053C38.4071 53.4053 38.9071 53.3035 39.3071 53.3035C40.4071 53.2018 41.3071 52.5915 42.1071 51.8793L57.3072 39.8758Z" fill="white"/>
<path d="M0.00720215 59H5.00721V34.5862H0.00720215V59Z" fill="white"/>
<path d="M30.9071 6.5104C32.4072 3.1535 35.7072 0 39.6071 0C44.9071 0 48.9072 4.17068 49.4071 9.35864C49.4071 9.35864 49.707 10.6811 49.1071 13.0207C48.3071 16.1742 46.5071 19.0224 44.0071 21.1586L31.407 32.2466C31.307 32.3484 31.1071 32.3484 31.007 32.2466L18.3071 21.1586C15.8071 19.0224 14.007 16.1742 13.207 13.0207C12.607 10.6811 12.9071 9.35864 12.9071 9.35864C13.4072 4.17068 17.0072 0 22.3071 0C26.2072 0 29.5072 3.1535 30.9071 6.5104Z" fill="white"/>
<path d="M29.7071 44.7586H20.007C19.407 44.7586 19.007 44.3517 19.007 43.7413C19.007 43.131 19.407 42.7241 20.007 42.7241H29.7071C30.3071 42.7241 30.7071 43.131 30.7071 43.7413C30.7071 44.3517 30.3071 44.7586 29.7071 44.7586Z" fill="white"/>
<path d="M16.0071 47.8105C15.407 47.8105 15.007 47.4036 15.007 46.7932C15.007 44.2501 16.907 42.7243 20.007 42.7243C20.6071 42.7243 21.0071 43.1311 21.0071 43.7415C21.0071 44.3519 20.6071 44.7588 20.007 44.7588C17.007 44.7588 17.007 46.2846 17.007 46.7933C17.0071 47.4036 16.6071 47.8105 16.0071 47.8105Z" fill="white"/>
</g>
<defs>
<clipPath id="clip0_9_125">
<rect width="58" height="59" fill="white"/>
</clipPath>
</defs>
</svg>
